<svg xmlns="http://www.w3.org/2000/svg" viewBox="0 0 1180 340" font-family="ui-sans-serif,system-ui,-apple-system,Segoe UI,Roboto,sans-serif">
<defs><marker id="arw" viewBox="0 0 10 10" refX="8" refY="5" markerWidth="7" markerHeight="7" orient="auto-start-reverse"><path d="M 0 0 L 10 5 L 0 10 z" fill="#9aa6b8"/></marker></defs>
<rect x="0" y="0" width="1180" height="340" fill="#ffffff"/>
<text x="14" y="18" font-size="11" font-weight="700" fill="#7d879a" letter-spacing="0.5">ON DEMAND</text>
<text x="14" y="126" font-size="11" font-weight="700" fill="#7d879a" letter-spacing="0.5">ALWAYS-ON CATALOG PIPELINE</text>
<text x="14" y="234" font-size="11" font-weight="700" fill="#7d879a" letter-spacing="0.5">OPTIONAL / SIBLING SKILLS</text>
<path d="M 171 170 L 222 170" fill="none" stroke="#9aa6b8" stroke-width="1.6" marker-end="url(#arw)"/>
<path d="M 378 170 L 416 170" fill="none" stroke="#9aa6b8" stroke-width="1.6" marker-end="url(#arw)"/>
<path d="M 572 170 L 610 170" fill="none" stroke="#9aa6b8" stroke-width="1.6" marker-end="url(#arw)"/>
<path d="M 766 170 L 806 170" fill="none" stroke="#9aa6b8" stroke-width="1.6" marker-end="url(#arw)"/>
<path d="M 974 170 L 995 170" fill="none" stroke="#9aa6b8" stroke-width="1.6" marker-end="url(#arw)"/>
<path d="M 378 52 L 416 52" fill="none" stroke="#9aa6b8" stroke-width="1.6" marker-end="url(#arw)"/>
<path d="M 572 52 L 610 52 L 610 170" fill="none" stroke="#9aa6b8" stroke-width="1.6" stroke-dasharray="5 4" marker-end="url(#arw)"/>
<path d="M 890 201 L 890 252" fill="none" stroke="#9aa6b8" stroke-width="1.6" stroke-dasharray="5 4" marker-end="url(#arw)"/>
<path d="M 974 278 L 995 278 L 995 170" fill="none" stroke="#9aa6b8" stroke-width="1.6" stroke-dasharray="5 4" marker-end="url(#arw)"/>
<path d="M 766 278 L 995 278 L 995 170" fill="none" stroke="#9aa6b8" stroke-width="1.6" stroke-dasharray="5 4" marker-end="url(#arw)"/>
<path d="M 171 170 L 200 170 L 200 278" fill="none" stroke="#9aa6b8" stroke-width="1.6" stroke-dasharray="5 4" marker-end="url(#arw)"/>
<rect x="222" y="26" width="156" height="52" rx="9" fill="#e3ecf9" stroke="#2a5fb8" stroke-width="2"/><text x="300" y="50" text-anchor="middle" font-size="13" font-weight="600" fill="#131a24">detect([...])</text><text x="300" y="66" text-anchor="middle" font-size="10.5" font-family="ui-monospace,Menlo,monospace" fill="#7d879a">directed search</text>
<rect x="416" y="26" width="156" height="52" rx="9" fill="#ffffff" stroke="#c6cfdd" stroke-width="1.2"/><text x="494" y="50" text-anchor="middle" font-size="13" font-weight="600" fill="#131a24">promptable YOLO-E</text><text x="494" y="66" text-anchor="middle" font-size="10.5" font-family="ui-monospace,Menlo,monospace" fill="#7d879a">2nd instance, on demand</text>
<rect x="21" y="139" width="150" height="62" rx="9" fill="#eef1f6" stroke="#c6cfdd" stroke-width="1.2"/><text x="96" y="162" text-anchor="middle" font-size="13" font-weight="600" fill="#131a24">sensors</text><text x="96" y="178" text-anchor="middle" font-size="10.5" font-family="ui-monospace,Menlo,monospace" fill="#7d879a">/color_image /lidar</text><text x="96" y="190" text-anchor="middle" font-size="10.5" font-family="ui-monospace,Menlo,monospace" fill="#7d879a">/camera_info /tf</text>
<rect x="222" y="144" width="156" height="52" rx="9" fill="#e2f5ee" stroke="#1baf7a" stroke-width="2"/><text x="300" y="168" text-anchor="middle" font-size="13" font-weight="600" fill="#131a24">frame-quality gate</text><text x="300" y="184" text-anchor="middle" font-size="10.5" font-family="ui-monospace,Menlo,monospace" fill="#7d879a">drop dark / blurry</text><rect x="334" y="135" width="40" height="17" rx="8.5" fill="#1baf7a"/><text x="354" y="147" text-anchor="middle" font-size="10" font-weight="700" fill="#ffffff">NEW</text>
<rect x="416" y="144" width="156" height="52" rx="9" fill="#ffffff" stroke="#c6cfdd" stroke-width="1.2"/><text x="494" y="168" text-anchor="middle" font-size="13" font-weight="600" fill="#131a24">YOLO-E prompt-free</text><text x="494" y="184" text-anchor="middle" font-size="10.5" font-family="ui-monospace,Menlo,monospace" fill="#7d879a">open-vocab 2D, per frame</text>
<rect x="610" y="144" width="156" height="52" rx="9" fill="#ffffff" stroke="#c6cfdd" stroke-width="1.2"/><text x="688" y="168" text-anchor="middle" font-size="13" font-weight="600" fill="#131a24">localize</text><text x="688" y="184" text-anchor="middle" font-size="10.5" font-family="ui-monospace,Menlo,monospace" fill="#7d879a">depth | lidar -&gt; world</text>
<rect x="806" y="139" width="168" height="62" rx="9" fill="#e2f5ee" stroke="#1baf7a" stroke-width="2"/><text x="890" y="162" text-anchor="middle" font-size="13" font-weight="600" fill="#131a24">ObjectDB</text><text x="890" y="178" text-anchor="middle" font-size="10.5" font-family="ui-monospace,Menlo,monospace" fill="#7d879a">dedup + promote</text><text x="890" y="190" text-anchor="middle" font-size="10.5" font-family="ui-monospace,Menlo,monospace" fill="#7d879a">keep sharpest crop</text><rect x="930" y="130" width="40" height="17" rx="8.5" fill="#1baf7a"/><text x="950" y="142" text-anchor="middle" font-size="10" font-weight="700" fill="#ffffff">NEW</text>
<rect x="806" y="252" width="168" height="52" rx="9" fill="#ffffff" stroke="#c6cfdd" stroke-width="1.2" stroke-dasharray="5 4"/><text x="890" y="276" text-anchor="middle" font-size="13" font-weight="600" fill="#49566a">VLM refine</text><text x="890" y="292" text-anchor="middle" font-size="10.5" font-family="ui-monospace,Menlo,monospace" fill="#7d879a">ambiguous only (item 5)</text>
<rect x="610" y="252" width="156" height="52" rx="9" fill="#ffffff" stroke="#c6cfdd" stroke-width="1.2" stroke-dasharray="5 4"/><text x="688" y="276" text-anchor="middle" font-size="13" font-weight="600" fill="#49566a">spatial memory</text><text x="688" y="292" text-anchor="middle" font-size="10.5" font-family="ui-monospace,Menlo,monospace" fill="#7d879a">tagged places + recall</text>
<rect x="995" y="133" width="178" height="74" rx="9" fill="#e3ecf9" stroke="#2a5fb8" stroke-width="2"/><text x="1084" y="154" text-anchor="middle" font-size="13" font-weight="600" fill="#131a24">catalog_scene()</text><text x="1084" y="168" text-anchor="middle" font-size="13" font-weight="600" fill="#131a24">list_observed_items()</text><text x="1084" y="184" text-anchor="middle" font-size="13" font-weight="600" fill="#131a24">locate()</text><text x="1084" y="198" text-anchor="middle" font-size="10.5" font-family="ui-monospace,Menlo,monospace" fill="#7d879a">agent answers</text>
<rect x="200" y="250" width="200" height="56" rx="9" fill="#e3ecf9" stroke="#2a5fb8" stroke-width="2"/><text x="300" y="269" text-anchor="middle" font-size="13" font-weight="600" fill="#131a24">generate_floorplan()</text><text x="300" y="284" text-anchor="middle" font-size="13" font-weight="600" fill="#131a24">measure_space()</text><text x="300" y="299" text-anchor="middle" font-size="10.5" font-family="ui-monospace,Menlo,monospace" fill="#7d879a">share /lidar + /odom</text>
</svg>