<?xml version="1.0" encoding="utf-8" standalone="no"?>
<!DOCTYPE svg PUBLIC "-//W3C//DTD SVG 1.1//EN"
  "http://www.w3.org/Graphics/SVG/1.1/DTD/svg11.dtd">
<svg xmlns:xlink="http://www.w3.org/1999/xlink" width="713.06595pt" height="243.99625pt" viewBox="0 0 713.06595 243.99625" xmlns="http://www.w3.org/2000/svg" version="1.1">
 <metadata>
  <rdf:RDF xmlns:dc="http://purl.org/dc/elements/1.1/" xmlns:cc="http://creativecommons.org/ns#" xmlns:rdf="http://www.w3.org/1999/02/22-rdf-syntax-ns#">
   <cc:Work>
    <dc:type rdf:resource="http://purl.org/dc/dcmitype/StillImage"/>
    <dc:date>1980-01-01T00:00:00+00:00</dc:date>
    <dc:format>image/svg+xml</dc:format>
    <dc:creator>
     <cc:Agent>
      <dc:title>Matplotlib v3.10.8, https://matplotlib.org/</dc:title>
     </cc:Agent>
    </dc:creator>
   </cc:Work>
  </rdf:RDF>
 </metadata>
 <defs>
  <style type="text/css">*{stroke-linejoin: round; stroke-linecap: butt}</style>
 </defs>
 <g id="figure_1">
  <g id="patch_1">
   <path d="M 0 243.99625
L 713.06595 243.99625
L 713.06595 0
L 0 0
L 0 243.99625
z
" style="fill: none; opacity: 0"/>
  </g>
  <g id="axes_1">
   <g id="patch_2">
    <path d="M 36.465625 206.44
L 600.825625 206.44
L 600.825625 7.2
L 36.465625 7.2
z
" style="fill: #16213e"/>
   </g>
   <g id="matplotlib.axis_1">
    <g id="xtick_1">
     <g id="line2d_1">
      <path d="M 65.339812 206.44
L 65.339812 7.2
" clip-path="url(#p1c3d015f41)" style="fill: none; stroke: #2a2a4a; stroke-width: 0.5; stroke-linecap: square"/>
     </g>
     <g id="line2d_2">
      <defs>
       <path id="mdd9991259b" d="M 0 0
L 0 3.5
" style="stroke: #ffffff"/>
      </defs>
      <g>
       <use xlink:href="#mdd9991259b" x="65.339812" y="206.44" style="fill: #ffffff; stroke: #ffffff"/>
      </g>
     </g>
     <g id="text_1">
      <!-- 2s -->
      <g style="fill: #ffffff" transform="translate(59.553874 221.038438) scale(0.1 -0.1)">
       <defs>
        <path id="DejaVuSans-32" d="M 1228 531
L 3431 531
L 3431 0
L 469 0
L 469 531
Q 828 903 1448 1529
Q 2069 2156 2228 2338
Q 2531 2678 2651 2914
Q 2772 3150 2772 3378
Q 2772 3750 2511 3984
Q 2250 4219 1831 4219
Q 1534 4219 1204 4116
Q 875 4013 500 3803
L 500 4441
Q 881 4594 1212 4672
Q 1544 4750 1819 4750
Q 2544 4750 2975 4387
Q 3406 4025 3406 3419
Q 3406 3131 3298 2873
Q 3191 2616 2906 2266
Q 2828 2175 2409 1742
Q 1991 1309 1228 531
z
" transform="scale(0.015625)"/>
        <path id="DejaVuSans-73" d="M 2834 3397
L 2834 2853
Q 2591 2978 2328 3040
Q 2066 3103 1784 3103
Q 1356 3103 1142 2972
Q 928 2841 928 2578
Q 928 2378 1081 2264
Q 1234 2150 1697 2047
L 1894 2003
Q 2506 1872 2764 1633
Q 3022 1394 3022 966
Q 3022 478 2636 193
Q 2250 -91 1575 -91
Q 1294 -91 989 -36
Q 684 19 347 128
L 347 722
Q 666 556 975 473
Q 1284 391 1588 391
Q 1994 391 2212 530
Q 2431 669 2431 922
Q 2431 1156 2273 1281
Q 2116 1406 1581 1522
L 1381 1569
Q 847 1681 609 1914
Q 372 2147 372 2553
Q 372 3047 722 3315
Q 1072 3584 1716 3584
Q 2034 3584 2315 3537
Q 2597 3491 2834 3397
z
" transform="scale(0.015625)"/>
       </defs>
       <use xlink:href="#DejaVuSans-32"/>
       <use xlink:href="#DejaVuSans-73" transform="translate(63.623047 0)"/>
      </g>
     </g>
    </g>
    <g id="xtick_2">
     <g id="line2d_3">
      <path d="M 153.05772 206.44
L 153.05772 7.2
" clip-path="url(#p1c3d015f41)" style="fill: none; stroke: #2a2a4a; stroke-width: 0.5; stroke-linecap: square"/>
     </g>
     <g id="line2d_4">
      <g>
       <use xlink:href="#mdd9991259b" x="153.05772" y="206.44" style="fill: #ffffff; stroke: #ffffff"/>
      </g>
     </g>
     <g id="text_2">
      <!-- 52s -->
      <g style="fill: #ffffff" transform="translate(144.090532 221.038438) scale(0.1 -0.1)">
       <defs>
        <path id="DejaVuSans-35" d="M 691 4666
L 3169 4666
L 3169 4134
L 1269 4134
L 1269 2991
Q 1406 3038 1543 3061
Q 1681 3084 1819 3084
Q 2600 3084 3056 2656
Q 3513 2228 3513 1497
Q 3513 744 3044 326
Q 2575 -91 1722 -91
Q 1428 -91 1123 -41
Q 819 9 494 109
L 494 744
Q 775 591 1075 516
Q 1375 441 1709 441
Q 2250 441 2565 725
Q 2881 1009 2881 1497
Q 2881 1984 2565 2268
Q 2250 2553 1709 2553
Q 1456 2553 1204 2497
Q 953 2441 691 2322
L 691 4666
z
" transform="scale(0.015625)"/>
       </defs>
       <use xlink:href="#DejaVuSans-35"/>
       <use xlink:href="#DejaVuSans-32" transform="translate(63.623047 0)"/>
       <use xlink:href="#DejaVuSans-73" transform="translate(127.246094 0)"/>
      </g>
     </g>
    </g>
    <g id="xtick_3">
     <g id="line2d_5">
      <path d="M 240.775627 206.44
L 240.775627 7.2
" clip-path="url(#p1c3d015f41)" style="fill: none; stroke: #2a2a4a; stroke-width: 0.5; stroke-linecap: square"/>
     </g>
     <g id="line2d_6">
      <g>
       <use xlink:href="#mdd9991259b" x="240.775627" y="206.44" style="fill: #ffffff; stroke: #ffffff"/>
      </g>
     </g>
     <g id="text_3">
      <!-- 102s -->
      <g style="fill: #ffffff" transform="translate(228.62719 221.038438) scale(0.1 -0.1)">
       <defs>
        <path id="DejaVuSans-31" d="M 794 531
L 1825 531
L 1825 4091
L 703 3866
L 703 4441
L 1819 4666
L 2450 4666
L 2450 531
L 3481 531
L 3481 0
L 794 0
L 794 531
z
" transform="scale(0.015625)"/>
        <path id="DejaVuSans-30" d="M 2034 4250
Q 1547 4250 1301 3770
Q 1056 3291 1056 2328
Q 1056 1369 1301 889
Q 1547 409 2034 409
Q 2525 409 2770 889
Q 3016 1369 3016 2328
Q 3016 3291 2770 3770
Q 2525 4250 2034 4250
z
M 2034 4750
Q 2819 4750 3233 4129
Q 3647 3509 3647 2328
Q 3647 1150 3233 529
Q 2819 -91 2034 -91
Q 1250 -91 836 529
Q 422 1150 422 2328
Q 422 3509 836 4129
Q 1250 4750 2034 4750
z
" transform="scale(0.015625)"/>
       </defs>
       <use xlink:href="#DejaVuSans-31"/>
       <use xlink:href="#DejaVuSans-30" transform="translate(63.623047 0)"/>
       <use xlink:href="#DejaVuSans-32" transform="translate(127.246094 0)"/>
       <use xlink:href="#DejaVuSans-73" transform="translate(190.869141 0)"/>
      </g>
     </g>
    </g>
    <g id="xtick_4">
     <g id="line2d_7">
      <path d="M 328.493535 206.44
L 328.493535 7.2
" clip-path="url(#p1c3d015f41)" style="fill: none; stroke: #2a2a4a; stroke-width: 0.5; stroke-linecap: square"/>
     </g>
     <g id="line2d_8">
      <g>
       <use xlink:href="#mdd9991259b" x="328.493535" y="206.44" style="fill: #ffffff; stroke: #ffffff"/>
      </g>
     </g>
     <g id="text_4">
      <!-- 152s -->
      <g style="fill: #ffffff" transform="translate(316.345097 221.038438) scale(0.1 -0.1)">
       <use xlink:href="#DejaVuSans-31"/>
       <use xlink:href="#DejaVuSans-35" transform="translate(63.623047 0)"/>
       <use xlink:href="#DejaVuSans-32" transform="translate(127.246094 0)"/>
       <use xlink:href="#DejaVuSans-73" transform="translate(190.869141 0)"/>
      </g>
     </g>
    </g>
    <g id="xtick_5">
     <g id="line2d_9">
      <path d="M 416.211442 206.44
L 416.211442 7.2
" clip-path="url(#p1c3d015f41)" style="fill: none; stroke: #2a2a4a; stroke-width: 0.5; stroke-linecap: square"/>
     </g>
     <g id="line2d_10">
      <g>
       <use xlink:href="#mdd9991259b" x="416.211442" y="206.44" style="fill: #ffffff; stroke: #ffffff"/>
      </g>
     </g>
     <g id="text_5">
      <!-- 202s -->
      <g style="fill: #ffffff" transform="translate(404.063005 221.038438) scale(0.1 -0.1)">
       <use xlink:href="#DejaVuSans-32"/>
       <use xlink:href="#DejaVuSans-30" transform="translate(63.623047 0)"/>
       <use xlink:href="#DejaVuSans-32" transform="translate(127.246094 0)"/>
       <use xlink:href="#DejaVuSans-73" transform="translate(190.869141 0)"/>
      </g>
     </g>
    </g>
    <g id="xtick_6">
     <g id="line2d_11">
      <path d="M 503.92935 206.44
L 503.92935 7.2
" clip-path="url(#p1c3d015f41)" style="fill: none; stroke: #2a2a4a; stroke-width: 0.5; stroke-linecap: square"/>
     </g>
     <g id="line2d_12">
      <g>
       <use xlink:href="#mdd9991259b" x="503.92935" y="206.44" style="fill: #ffffff; stroke: #ffffff"/>
      </g>
     </g>
     <g id="text_6">
      <!-- 252s -->
      <g style="fill: #ffffff" transform="translate(491.780912 221.038438) scale(0.1 -0.1)">
       <use xlink:href="#DejaVuSans-32"/>
       <use xlink:href="#DejaVuSans-35" transform="translate(63.623047 0)"/>
       <use xlink:href="#DejaVuSans-32" transform="translate(127.246094 0)"/>
       <use xlink:href="#DejaVuSans-73" transform="translate(190.869141 0)"/>
      </g>
     </g>
    </g>
    <g id="xtick_7">
     <g id="line2d_13">
      <path d="M 591.647258 206.44
L 591.647258 7.2
" clip-path="url(#p1c3d015f41)" style="fill: none; stroke: #2a2a4a; stroke-width: 0.5; stroke-linecap: square"/>
     </g>
     <g id="line2d_14">
      <g>
       <use xlink:href="#mdd9991259b" x="591.647258" y="206.44" style="fill: #ffffff; stroke: #ffffff"/>
      </g>
     </g>
     <g id="text_7">
      <!-- 302s -->
      <g style="fill: #ffffff" transform="translate(579.49882 221.038438) scale(0.1 -0.1)">
       <defs>
        <path id="DejaVuSans-33" d="M 2597 2516
Q 3050 2419 3304 2112
Q 3559 1806 3559 1356
Q 3559 666 3084 287
Q 2609 -91 1734 -91
Q 1441 -91 1130 -33
Q 819 25 488 141
L 488 750
Q 750 597 1062 519
Q 1375 441 1716 441
Q 2309 441 2620 675
Q 2931 909 2931 1356
Q 2931 1769 2642 2001
Q 2353 2234 1838 2234
L 1294 2234
L 1294 2753
L 1863 2753
Q 2328 2753 2575 2939
Q 2822 3125 2822 3475
Q 2822 3834 2567 4026
Q 2313 4219 1838 4219
Q 1578 4219 1281 4162
Q 984 4106 628 3988
L 628 4550
Q 988 4650 1302 4700
Q 1616 4750 1894 4750
Q 2613 4750 3031 4423
Q 3450 4097 3450 3541
Q 3450 3153 3228 2886
Q 3006 2619 2597 2516
z
" transform="scale(0.015625)"/>
       </defs>
       <use xlink:href="#DejaVuSans-33"/>
       <use xlink:href="#DejaVuSans-30" transform="translate(63.623047 0)"/>
       <use xlink:href="#DejaVuSans-32" transform="translate(127.246094 0)"/>
       <use xlink:href="#DejaVuSans-73" transform="translate(190.869141 0)"/>
      </g>
     </g>
    </g>
    <g id="text_8">
     <!-- time (s) -->
     <g style="fill: #ffffff" transform="translate(299.254219 234.716563) scale(0.1 -0.1)">
      <defs>
       <path id="DejaVuSans-74" d="M 1172 4494
L 1172 3500
L 2356 3500
L 2356 3053
L 1172 3053
L 1172 1153
Q 1172 725 1289 603
Q 1406 481 1766 481
L 2356 481
L 2356 0
L 1766 0
Q 1100 0 847 248
Q 594 497 594 1153
L 594 3053
L 172 3053
L 172 3500
L 594 3500
L 594 4494
L 1172 4494
z
" transform="scale(0.015625)"/>
       <path id="DejaVuSans-69" d="M 603 3500
L 1178 3500
L 1178 0
L 603 0
L 603 3500
z
M 603 4863
L 1178 4863
L 1178 4134
L 603 4134
L 603 4863
z
" transform="scale(0.015625)"/>
       <path id="DejaVuSans-6d" d="M 3328 2828
Q 3544 3216 3844 3400
Q 4144 3584 4550 3584
Q 5097 3584 5394 3201
Q 5691 2819 5691 2113
L 5691 0
L 5113 0
L 5113 2094
Q 5113 2597 4934 2840
Q 4756 3084 4391 3084
Q 3944 3084 3684 2787
Q 3425 2491 3425 1978
L 3425 0
L 2847 0
L 2847 2094
Q 2847 2600 2669 2842
Q 2491 3084 2119 3084
Q 1678 3084 1418 2786
Q 1159 2488 1159 1978
L 1159 0
L 581 0
L 581 3500
L 1159 3500
L 1159 2956
Q 1356 3278 1631 3431
Q 1906 3584 2284 3584
Q 2666 3584 2933 3390
Q 3200 3197 3328 2828
z
" transform="scale(0.015625)"/>
       <path id="DejaVuSans-65" d="M 3597 1894
L 3597 1613
L 953 1613
Q 991 1019 1311 708
Q 1631 397 2203 397
Q 2534 397 2845 478
Q 3156 559 3463 722
L 3463 178
Q 3153 47 2828 -22
Q 2503 -91 2169 -91
Q 1331 -91 842 396
Q 353 884 353 1716
Q 353 2575 817 3079
Q 1281 3584 2069 3584
Q 2775 3584 3186 3129
Q 3597 2675 3597 1894
z
M 3022 2063
Q 3016 2534 2758 2815
Q 2500 3097 2075 3097
Q 1594 3097 1305 2825
Q 1016 2553 972 2059
L 3022 2063
z
" transform="scale(0.015625)"/>
       <path id="DejaVuSans-20" transform="scale(0.015625)"/>
       <path id="DejaVuSans-28" d="M 1984 4856
Q 1566 4138 1362 3434
Q 1159 2731 1159 2009
Q 1159 1288 1364 580
Q 1569 -128 1984 -844
L 1484 -844
Q 1016 -109 783 600
Q 550 1309 550 2009
Q 550 2706 781 3412
Q 1013 4119 1484 4856
L 1984 4856
z
" transform="scale(0.015625)"/>
       <path id="DejaVuSans-29" d="M 513 4856
L 1013 4856
Q 1481 4119 1714 3412
Q 1947 2706 1947 2009
Q 1947 1309 1714 600
Q 1481 -109 1013 -844
L 513 -844
Q 928 -128 1133 580
Q 1338 1288 1338 2009
Q 1338 2731 1133 3434
Q 928 4138 513 4856
z
" transform="scale(0.015625)"/>
      </defs>
      <use xlink:href="#DejaVuSans-74"/>
      <use xlink:href="#DejaVuSans-69" transform="translate(39.208984 0)"/>
      <use xlink:href="#DejaVuSans-6d" transform="translate(66.992188 0)"/>
      <use xlink:href="#DejaVuSans-65" transform="translate(164.404297 0)"/>
      <use xlink:href="#DejaVuSans-20" transform="translate(225.927734 0)"/>
      <use xlink:href="#DejaVuSans-28" transform="translate(257.714844 0)"/>
      <use xlink:href="#DejaVuSans-73" transform="translate(296.728516 0)"/>
      <use xlink:href="#DejaVuSans-29" transform="translate(348.828125 0)"/>
     </g>
    </g>
   </g>
   <g id="matplotlib.axis_2">
    <g id="ytick_1">
     <g id="line2d_15">
      <path d="M 36.465625 180.736734
L 600.825625 180.736734
" clip-path="url(#p1c3d015f41)" style="fill: none; stroke: #2a2a4a; stroke-width: 0.5; stroke-linecap: square"/>
     </g>
     <g id="line2d_16">
      <defs>
       <path id="m8e57306ba3" d="M 0 0
L -3.5 0
" style="stroke: #ffffff"/>
      </defs>
      <g>
       <use xlink:href="#m8e57306ba3" x="36.465625" y="180.736734" style="fill: #ffffff; stroke: #ffffff"/>
      </g>
     </g>
     <g id="text_9">
      <!-- 0.16 -->
      <g style="fill: #ffffff" transform="translate(7.2 184.535953) scale(0.1 -0.1)">
       <defs>
        <path id="DejaVuSans-2e" d="M 684 794
L 1344 794
L 1344 0
L 684 0
L 684 794
z
" transform="scale(0.015625)"/>
        <path id="DejaVuSans-36" d="M 2113 2584
Q 1688 2584 1439 2293
Q 1191 2003 1191 1497
Q 1191 994 1439 701
Q 1688 409 2113 409
Q 2538 409 2786 701
Q 3034 994 3034 1497
Q 3034 2003 2786 2293
Q 2538 2584 2113 2584
z
M 3366 4563
L 3366 3988
Q 3128 4100 2886 4159
Q 2644 4219 2406 4219
Q 1781 4219 1451 3797
Q 1122 3375 1075 2522
Q 1259 2794 1537 2939
Q 1816 3084 2150 3084
Q 2853 3084 3261 2657
Q 3669 2231 3669 1497
Q 3669 778 3244 343
Q 2819 -91 2113 -91
Q 1303 -91 875 529
Q 447 1150 447 2328
Q 447 3434 972 4092
Q 1497 4750 2381 4750
Q 2619 4750 2861 4703
Q 3103 4656 3366 4563
z
" transform="scale(0.015625)"/>
       </defs>
       <use xlink:href="#DejaVuSans-30"/>
       <use xlink:href="#DejaVuSans-2e" transform="translate(63.623047 0)"/>
       <use xlink:href="#DejaVuSans-31" transform="translate(95.410156 0)"/>
       <use xlink:href="#DejaVuSans-36" transform="translate(159.033203 0)"/>
      </g>
     </g>
    </g>
    <g id="ytick_2">
     <g id="line2d_17">
      <path d="M 36.465625 147.442931
L 600.825625 147.442931
" clip-path="url(#p1c3d015f41)" style="fill: none; stroke: #2a2a4a; stroke-width: 0.5; stroke-linecap: square"/>
     </g>
     <g id="line2d_18">
      <g>
       <use xlink:href="#m8e57306ba3" x="36.465625" y="147.442931" style="fill: #ffffff; stroke: #ffffff"/>
      </g>
     </g>
     <g id="text_10">
      <!-- 0.18 -->
      <g style="fill: #ffffff" transform="translate(7.2 151.242149) scale(0.1 -0.1)">
       <defs>
        <path id="DejaVuSans-38" d="M 2034 2216
Q 1584 2216 1326 1975
Q 1069 1734 1069 1313
Q 1069 891 1326 650
Q 1584 409 2034 409
Q 2484 409 2743 651
Q 3003 894 3003 1313
Q 3003 1734 2745 1975
Q 2488 2216 2034 2216
z
M 1403 2484
Q 997 2584 770 2862
Q 544 3141 544 3541
Q 544 4100 942 4425
Q 1341 4750 2034 4750
Q 2731 4750 3128 4425
Q 3525 4100 3525 3541
Q 3525 3141 3298 2862
Q 3072 2584 2669 2484
Q 3125 2378 3379 2068
Q 3634 1759 3634 1313
Q 3634 634 3220 271
Q 2806 -91 2034 -91
Q 1263 -91 848 271
Q 434 634 434 1313
Q 434 1759 690 2068
Q 947 2378 1403 2484
z
M 1172 3481
Q 1172 3119 1398 2916
Q 1625 2713 2034 2713
Q 2441 2713 2670 2916
Q 2900 3119 2900 3481
Q 2900 3844 2670 4047
Q 2441 4250 2034 4250
Q 1625 4250 1398 4047
Q 1172 3844 1172 3481
z
" transform="scale(0.015625)"/>
       </defs>
       <use xlink:href="#DejaVuSans-30"/>
       <use xlink:href="#DejaVuSans-2e" transform="translate(63.623047 0)"/>
       <use xlink:href="#DejaVuSans-31" transform="translate(95.410156 0)"/>
       <use xlink:href="#DejaVuSans-38" transform="translate(159.033203 0)"/>
      </g>
     </g>
    </g>
    <g id="ytick_3">
     <g id="line2d_19">
      <path d="M 36.465625 114.149127
L 600.825625 114.149127
" clip-path="url(#p1c3d015f41)" style="fill: none; stroke: #2a2a4a; stroke-width: 0.5; stroke-linecap: square"/>
     </g>
     <g id="line2d_20">
      <g>
       <use xlink:href="#m8e57306ba3" x="36.465625" y="114.149127" style="fill: #ffffff; stroke: #ffffff"/>
      </g>
     </g>
     <g id="text_11">
      <!-- 0.20 -->
      <g style="fill: #ffffff" transform="translate(7.2 117.948345) scale(0.1 -0.1)">
       <use xlink:href="#DejaVuSans-30"/>
       <use xlink:href="#DejaVuSans-2e" transform="translate(63.623047 0)"/>
       <use xlink:href="#DejaVuSans-32" transform="translate(95.410156 0)"/>
       <use xlink:href="#DejaVuSans-30" transform="translate(159.033203 0)"/>
      </g>
     </g>
    </g>
    <g id="ytick_4">
     <g id="line2d_21">
      <path d="M 36.465625 80.855323
L 600.825625 80.855323
" clip-path="url(#p1c3d015f41)" style="fill: none; stroke: #2a2a4a; stroke-width: 0.5; stroke-linecap: square"/>
     </g>
     <g id="line2d_22">
      <g>
       <use xlink:href="#m8e57306ba3" x="36.465625" y="80.855323" style="fill: #ffffff; stroke: #ffffff"/>
      </g>
     </g>
     <g id="text_12">
      <!-- 0.22 -->
      <g style="fill: #ffffff" transform="translate(7.2 84.654542) scale(0.1 -0.1)">
       <use xlink:href="#DejaVuSans-30"/>
       <use xlink:href="#DejaVuSans-2e" transform="translate(63.623047 0)"/>
       <use xlink:href="#DejaVuSans-32" transform="translate(95.410156 0)"/>
       <use xlink:href="#DejaVuSans-32" transform="translate(159.033203 0)"/>
      </g>
     </g>
    </g>
    <g id="ytick_5">
     <g id="line2d_23">
      <path d="M 36.465625 47.561519
L 600.825625 47.561519
" clip-path="url(#p1c3d015f41)" style="fill: none; stroke: #2a2a4a; stroke-width: 0.5; stroke-linecap: square"/>
     </g>
     <g id="line2d_24">
      <g>
       <use xlink:href="#m8e57306ba3" x="36.465625" y="47.561519" style="fill: #ffffff; stroke: #ffffff"/>
      </g>
     </g>
     <g id="text_13">
      <!-- 0.24 -->
      <g style="fill: #ffffff" transform="translate(7.2 51.360738) scale(0.1 -0.1)">
       <defs>
        <path id="DejaVuSans-34" d="M 2419 4116
L 825 1625
L 2419 1625
L 2419 4116
z
M 2253 4666
L 3047 4666
L 3047 1625
L 3713 1625
L 3713 1100
L 3047 1100
L 3047 0
L 2419 0
L 2419 1100
L 313 1100
L 313 1709
L 2253 4666
z
" transform="scale(0.015625)"/>
       </defs>
       <use xlink:href="#DejaVuSans-30"/>
       <use xlink:href="#DejaVuSans-2e" transform="translate(63.623047 0)"/>
       <use xlink:href="#DejaVuSans-32" transform="translate(95.410156 0)"/>
       <use xlink:href="#DejaVuSans-34" transform="translate(159.033203 0)"/>
      </g>
     </g>
    </g>
    <g id="ytick_6">
     <g id="line2d_25">
      <path d="M 36.465625 14.267715
L 600.825625 14.267715
" clip-path="url(#p1c3d015f41)" style="fill: none; stroke: #2a2a4a; stroke-width: 0.5; stroke-linecap: square"/>
     </g>
     <g id="line2d_26">
      <g>
       <use xlink:href="#m8e57306ba3" x="36.465625" y="14.267715" style="fill: #ffffff; stroke: #ffffff"/>
      </g>
     </g>
     <g id="text_14">
      <!-- 0.26 -->
      <g style="fill: #ffffff" transform="translate(7.2 18.066934) scale(0.1 -0.1)">
       <use xlink:href="#DejaVuSans-30"/>
       <use xlink:href="#DejaVuSans-2e" transform="translate(63.623047 0)"/>
       <use xlink:href="#DejaVuSans-32" transform="translate(95.410156 0)"/>
       <use xlink:href="#DejaVuSans-36" transform="translate(159.033203 0)"/>
      </g>
     </g>
    </g>
   </g>
   <g id="line2d_27">
    <path d="M 69.257747 94.419493
L 69.749245 104.068162
L 70.862977 91.329383
L 72.221503 94.797533
L 72.956768 94.482599
L 74.06637 93.82068
L 74.933253 99.687355
L 75.545839 102.967676
L 76.898764 91.70018
L 78.018268 87.856767
L 78.520475 89.990166
L 79.370314 91.632212
L 80.231996 105.719038
L 81.46751 89.427471
L 83.069993 90.848844
L 84.053958 97.129776
L 85.03789 96.703017
L 85.656075 110.100738
L 86.537007 116.676859
L 87.13449 95.715349
L 88.498584 127.042912
L 89.096379 112.361937
L 90.465187 112.633213
L 91.936789 114.256407
L 92.9213 113.499036
L 93.178402 105.956281
L 94.033854 74.041018
L 95.265007 110.914865
L 96.385752 105.345264
L 96.993213 103.705302
L 99.712277 88.406464
L 100.814801 121.582358
L 101.43821 96.317832
L 102.683051 126.283656
L 103.295036 93.984101
M 109.070005 97.978036
L 109.686579 85.697073
L 112.652323 105.30617
L 113.271033 105.40202
L 114.501789 82.632364
L 115.36854 72.732065
L 116.48062 78.867734
L 116.851885 80.070816
L 117.951557 111.611214
L 118.578431 91.574464
L 119.585532 80.992997
M 126.082461 96.225158
L 126.712424 74.413998
L 127.944539 95.006795
L 129.192419 118.404039
L 130.162406 126.870066
L 131.163018 90.316809
L 131.405751 107.722852
L 132.503855 56.147689
L 134.115581 41.118639
L 134.240713 16.256364
L 136.201547 102.525934
L 137.311316 116.094617
L 138.170805 89.160064
L 139.167227 88.582486
L 140.756151 84.909836
M 152.465534 110.521147
L 152.96717 120.006792
L 154.443807 117.235189
L 155.058376 100.192799
L 156.531864 96.230218
L 157.763411 92.157897
L 159.372055 95.815167
L 160.252067 96.954449
L 160.492323 93.876741
L 162.217837 115.05575
L 163.210508 111.713315
L 163.453166 121.1938
L 165.059602 99.199474
L 166.161201 97.675207
L 167.27037 96.874376
L 167.881868 87.79118
L 169.243502 100.389856
L 170.20928 101.992312
L 171.196764 92.828448
L 171.684678 101.909659
L 172.299428 86.02699
L 173.283463 107.601105
L 174.637712 72.397881
L 175.486957 69.527352
L 177.091839 127.229551
L 177.209341 84.57208
M 190.775122 119.122316
L 193.249577 101.756656
L 194.229649 125.781884
L 194.980056 100.915442
L 195.465081 103.167711
L 196.32911 98.614454
L 197.560988 106.619787
L 198.17538 125.748545
L 199.282929 143.354424
L 201.013147 125.108356
L 201.885303 81.597564
L 202.36934 88.689349
L 203.107568 79.625006
L 204.827559 90.258466
L 205.205053 95.99754
L 206.670203 89.190228
L 207.294436 109.39665
L 208.633713 118.152111
L 209.267108 109.328682
L 210.360675 125.967233
L 210.854578 113.453393
L 212.706202 131.315863
L 213.075234 112.180855
L 213.812723 81.937007
L 215.661416 98.834531
L 216.542023 76.117265
L 217.515419 91.313904
L 217.885409 85.1443
L 220.478559 112.67707
L 220.978088 110.156105
L 221.955873 111.940536
L 222.826808 116.646199
L 223.80788 97.122434
L 224.790327 96.421421
L 225.650354 82.978554
M 254.363 112.41909
L 255.363438 121.506353
M 293.317898 117.484636
L 293.685069 104.328226
L 294.563465 107.851446
M 348.058862 110.002408
L 348.927127 110.289758
L 349.804785 112.043232
L 350.769932 112.567329
L 351.757903 86.474785
L 353.369457 103.72604
L 354.830414 85.196293
L 354.963124 74.720003
L 356.815297 130.402315
L 357.806431 131.597856
L 357.928845 116.850103
L 359.396861 134.086971
L 360.008019 112.769745
L 361.491233 118.823852
L 362.598114 118.677597
L 363.599197 85.059067
L 363.957981 82.748455
L 365.191896 83.547103
L 366.058654 102.783717
L 367.54397 105.545993
L 367.782649 110.940167
L 369.127728 95.587251
L 370.609499 99.379862
L 370.977502 117.55439
L 371.713663 83.621818
M 391.195372 112.842575
L 392.574358 104.204495
L 393.172204 104.079275
L 394.649116 111.11728
L 395.148876 95.86339
L 396.125475 90.27196
L 396.740121 102.725869
L 397.975355 111.447991
L 399.091846 106.814662
L 399.706424 95.804848
L 401.064304 109.136189
L 402.179788 133.585
L 402.910966 153.751336
L 403.651672 123.923333
L 405.497959 110.421328
L 405.620071 111.254903
L 406.60359 102.464912
L 408.329369 116.615738
L 410.187286 94.499467
L 410.925833 104.517048
L 411.532123 83.453436
M 459.479784 107.029182
L 459.856509 71.903451
M 481.671836 95.251182
L 482.042151 104.028671
L 483.038145 93.701315
L 484.762057 81.687262
L 484.883488 101.839806
L 486.119003 62.916304
M 490.927193 42.565115
L 492.407125 99.530186
L 493.141226 114.634547
L 494.379402 120.507572
L 495.478947 90.550778
L 495.731967 114.921104
L 497.325994 106.179732
L 497.822225 87.457691
L 499.550854 82.22019
L 500.168161 74.085371
L 501.397074 99.65997
L 501.771259 91.432773
L 503.007521 82.658956
L 504.237742 76.441725
L 504.608128 102.439213
L 505.586295 113.929665
L 506.697543 100.99353
L 507.563018 100.427263
L 508.796658 99.424215
L 510.889297 111.00367
M 519.272832 112.972458
L 520.139039 96.77803
L 521.61641 102.071194
L 522.597607 89.108071
L 523.214907 95.869938
L 524.073462 100.673337
L 525.565597 115.774821
L 525.686669 119.909156
L 526.801201 95.891271
L 527.778423 96.940657
L 529.509085 105.261222
L 530.497304 120.784703
L 530.743327 105.846937
L 531.882339 102.25823
L 533.328603 93.838342
L 533.884294 106.960718
L 534.68197 93.526682
L 536.205202 100.829713
L 536.898043 104.817099
L 537.529115 104.565965
L 538.879228 101.923649
L 539.488812 97.808166
L 541.101693 96.65539
L 542.097366 108.290013
L 543.081599 104.812932
L 543.815946 117.097764
L 544.801883 112.062779
L 546.162202 110.148167
L 547.021602 113.235102
L 547.267335 109.066931
L 548.241819 88.67774
L 549.232881 82.82446
L 550.957523 96.563608
L 551.454342 94.577655
L 552.810224 92.248388
L 553.299658 90.624798
L 555.019621 74.935119
L 555.273492 78.145885
L 556.259521 80.979701
L 557.108643 70.405378
L 558.104879 86.379927
L 559.834651 64.56718
L 560.077536 73.60007
L 561.560283 105.837213
L 562.798466 99.276472
L 563.527683 112.721224
L 564.759269 105.061784
L 565.754302 101.530626
L 566.496309 115.131655
L 567.104784 102.044404
L 567.860311 100.493842
L 568.898261 107.532939
L 570.681211 112.518313
L 571.540338 107.617775
L 572.277565 91.826392
L 573.497916 112.668934
L 574.872389 113.831533
L 575.172897 107.443142
L 575.172897 107.443142
" clip-path="url(#p1c3d015f41)" style="fill: none; stroke: #4cdc29; stroke-width: 1.5; stroke-linecap: square"/>
   </g>
   <g id="line2d_28">
    <path d="M 36.465625 197.383636
L 600.825625 197.383636
" clip-path="url(#p1c3d015f41)" style="fill: none; stroke-dasharray: 3.7,1.6; stroke-dashoffset: 0; stroke: #e74c3c"/>
   </g>
   <g id="patch_3">
    <path d="M 36.465625 206.44
L 36.465625 7.2
" style="fill: none; stroke: #ffffff; stroke-linejoin: miter; stroke-linecap: square"/>
   </g>
   <g id="patch_4">
    <path d="M 600.825625 206.44
L 600.825625 7.2
" style="fill: none; stroke: #ffffff; stroke-linejoin: miter; stroke-linecap: square"/>
   </g>
   <g id="patch_5">
    <path d="M 36.465625 206.44
L 600.825624 206.44
" style="fill: none; stroke: #ffffff; stroke-linejoin: miter; stroke-linecap: square"/>
   </g>
   <g id="patch_6">
    <path d="M 36.465625 7.2
L 600.825624 7.2
" style="fill: none; stroke: #ffffff; stroke-linejoin: miter; stroke-linecap: square"/>
   </g>
  </g>
  <g id="axes_2">
   <g id="matplotlib.axis_3">
    <g id="ytick_7">
     <g id="line2d_29">
      <defs>
       <path id="m9386b23bc3" d="M 0 0
L 3.5 0
" style="stroke: #3498db"/>
      </defs>
      <g>
       <use xlink:href="#m9386b23bc3" x="600.825625" y="197.384573" style="fill: #3498db; stroke: #3498db"/>
      </g>
     </g>
     <g id="text_15">
      <!-- 0.0 -->
      <g style="fill: #3498db" transform="translate(607.825625 201.183791) scale(0.1 -0.1)">
       <use xlink:href="#DejaVuSans-30"/>
       <use xlink:href="#DejaVuSans-2e" transform="translate(63.623047 0)"/>
       <use xlink:href="#DejaVuSans-30" transform="translate(95.410156 0)"/>
      </g>
     </g>
    </g>
    <g id="ytick_8">
     <g id="line2d_30">
      <g>
       <use xlink:href="#m9386b23bc3" x="600.825625" y="169.298517" style="fill: #3498db; stroke: #3498db"/>
      </g>
     </g>
     <g id="text_16">
      <!-- 0.1 -->
      <g style="fill: #3498db" transform="translate(607.825625 173.097735) scale(0.1 -0.1)">
       <use xlink:href="#DejaVuSans-30"/>
       <use xlink:href="#DejaVuSans-2e" transform="translate(63.623047 0)"/>
       <use xlink:href="#DejaVuSans-31" transform="translate(95.410156 0)"/>
      </g>
     </g>
    </g>
    <g id="ytick_9">
     <g id="line2d_31">
      <g>
       <use xlink:href="#m9386b23bc3" x="600.825625" y="141.212461" style="fill: #3498db; stroke: #3498db"/>
      </g>
     </g>
     <g id="text_17">
      <!-- 0.2 -->
      <g style="fill: #3498db" transform="translate(607.825625 145.011679) scale(0.1 -0.1)">
       <use xlink:href="#DejaVuSans-30"/>
       <use xlink:href="#DejaVuSans-2e" transform="translate(63.623047 0)"/>
       <use xlink:href="#DejaVuSans-32" transform="translate(95.410156 0)"/>
      </g>
     </g>
    </g>
    <g id="ytick_10">
     <g id="line2d_32">
      <g>
       <use xlink:href="#m9386b23bc3" x="600.825625" y="113.126405" style="fill: #3498db; stroke: #3498db"/>
      </g>
     </g>
     <g id="text_18">
      <!-- 0.3 -->
      <g style="fill: #3498db" transform="translate(607.825625 116.925623) scale(0.1 -0.1)">
       <use xlink:href="#DejaVuSans-30"/>
       <use xlink:href="#DejaVuSans-2e" transform="translate(63.623047 0)"/>
       <use xlink:href="#DejaVuSans-33" transform="translate(95.410156 0)"/>
      </g>
     </g>
    </g>
    <g id="ytick_11">
     <g id="line2d_33">
      <g>
       <use xlink:href="#m9386b23bc3" x="600.825625" y="85.040349" style="fill: #3498db; stroke: #3498db"/>
      </g>
     </g>
     <g id="text_19">
      <!-- 0.4 -->
      <g style="fill: #3498db" transform="translate(607.825625 88.839567) scale(0.1 -0.1)">
       <use xlink:href="#DejaVuSans-30"/>
       <use xlink:href="#DejaVuSans-2e" transform="translate(63.623047 0)"/>
       <use xlink:href="#DejaVuSans-34" transform="translate(95.410156 0)"/>
      </g>
     </g>
    </g>
    <g id="ytick_12">
     <g id="line2d_34">
      <g>
       <use xlink:href="#m9386b23bc3" x="600.825625" y="56.954293" style="fill: #3498db; stroke: #3498db"/>
      </g>
     </g>
     <g id="text_20">
      <!-- 0.5 -->
      <g style="fill: #3498db" transform="translate(607.825625 60.753511) scale(0.1 -0.1)">
       <use xlink:href="#DejaVuSans-30"/>
       <use xlink:href="#DejaVuSans-2e" transform="translate(63.623047 0)"/>
       <use xlink:href="#DejaVuSans-35" transform="translate(95.410156 0)"/>
      </g>
     </g>
    </g>
    <g id="ytick_13">
     <g id="line2d_35">
      <g>
       <use xlink:href="#m9386b23bc3" x="600.825625" y="28.868237" style="fill: #3498db; stroke: #3498db"/>
      </g>
     </g>
     <g id="text_21">
      <!-- 0.6 -->
      <g style="fill: #3498db" transform="translate(607.825625 32.667455) scale(0.1 -0.1)">
       <use xlink:href="#DejaVuSans-30"/>
       <use xlink:href="#DejaVuSans-2e" transform="translate(63.623047 0)"/>
       <use xlink:href="#DejaVuSans-36" transform="translate(95.410156 0)"/>
      </g>
     </g>
    </g>
   </g>
   <g id="line2d_36">
    <path d="M 62.118352 190.839888
L 67.039485 190.82968
L 68.028523 184.004672
L 69.018966 117.068756
L 70.002728 115.411257
L 70.989465 109.473579
L 71.975148 112.595307
L 72.956768 112.050188
L 73.943306 106.661264
L 74.933253 105.139052
L 75.925573 97.177335
L 76.898764 84.039165
L 77.895604 83.359147
L 78.877213 96.680607
L 79.859943 74.955726
L 80.858703 59.301311
L 81.835615 49.215364
L 82.825524 32.776717
L 83.809904 28.873396
L 84.806564 16.438797
L 85.782791 54.783763
L 86.769467 103.633412
L 87.753952 126.155979
L 89.727513 148.431925
L 90.708228 163.963493
L 91.693633 161.379295
L 92.689981 165.754715
L 93.665128 164.424756
L 94.645231 158.363473
L 95.631769 159.031839
L 96.508989 161.46614
L 97.484352 168.788732
L 98.36562 168.496797
L 99.338348 148.220988
L 100.31989 142.713559
L 101.332623 152.190916
L 102.299256 159.487764
L 103.295036 168.061687
L 105.251298 178.180758
L 106.242148 176.005846
L 107.233864 174.825067
L 108.203433 169.286715
L 109.196243 164.360837
L 111.177268 177.861932
L 113.153571 130.737027
L 114.145015 132.045265
L 115.114461 129.066671
L 116.111001 129.10339
L 117.094937 125.898522
L 118.087591 141.346044
L 119.063424 136.143767
L 120.047745 173.596951
L 120.928531 176.093278
L 121.90169 177.69629
L 122.881917 176.103168
L 123.866971 185.033921
L 124.860188 185.05622
L 125.850208 129.351764
L 126.858203 134.623367
L 127.822856 107.004829
L 128.814708 102.603406
L 129.793845 89.608609
L 130.790391 66.652765
L 131.766539 48.536222
L 132.754377 62.840671
L 133.741934 64.692634
L 134.73446 45.33235
L 135.721567 56.915501
L 137.67815 117.853645
L 138.658863 136.732409
L 139.655758 161.601506
L 140.631208 167.590056
L 141.617312 179.384623
L 142.594879 193.673107
L 143.602591 192.285344
L 144.57011 189.450104
L 145.555469 195.387871
L 146.550046 195.989271
L 147.529655 195.703092
L 148.518542 195.831188
L 149.396759 197.35595
L 150.363356 189.159303
L 151.363394 172.352751
L 153.32712 128.139623
L 154.20681 131.199923
L 156.16773 140.281051
L 157.15376 143.78889
L 158.141112 149.372975
L 159.127873 106.696739
L 160.132659 97.710185
L 161.104762 94.915608
L 161.985715 105.690685
L 162.955519 88.919299
L 163.949204 75.01833
L 164.930889 87.699191
L 165.928891 77.42344
L 166.897773 87.412583
L 167.881868 95.629069
L 168.868296 95.622306
L 169.843491 97.901223
L 170.828913 92.505667
L 171.804543 91.141249
L 172.792224 99.892935
L 173.781755 100.102039
L 174.753914 116.358512
L 175.738204 155.433709
L 176.718147 144.865187
L 177.703449 165.511998
L 178.680073 178.092728
L 179.685165 186.0192
L 180.650591 188.348889
L 181.644596 195.738925
L 183.619534 195.99927
L 184.59361 195.618936
L 185.595602 195.75239
L 186.567211 195.696539
L 187.558072 195.24158
L 188.555222 186.118145
L 189.537197 179.740606
L 190.533857 158.360515
L 191.511991 158.927595
L 192.50552 126.372124
L 193.497332 39.583131
L 194.477089 57.432556
L 195.465081 95.280465
L 196.452674 74.06265
L 197.432705 80.973825
L 198.439128 105.142677
L 199.404915 131.605195
L 200.390066 54.782388
L 201.388665 46.611795
L 202.36934 70.423478
L 203.351241 71.547898
L 204.324357 69.814799
L 205.205053 78.074039
L 206.188371 76.592201
L 207.150832 81.723707
L 208.141382 85.030748
L 209.128774 86.044431
L 210.112958 84.596504
L 211.099513 93.166045
L 212.087439 87.928891
L 213.075234 86.159122
L 214.057313 100.810511
L 215.042014 78.944448
L 216.036302 31.410008
L 217.021347 56.612611
L 218.007966 72.954922
L 218.917233 79.798026
L 219.856082 78.204923
L 220.849388 83.28016
L 221.837749 90.160083
L 222.826808 98.771891
L 223.80788 105.521458
L 224.790327 108.038679
L 225.768421 112.979595
L 226.757414 190.112952
L 227.746506 189.527796
L 228.719867 192.975471
L 229.7162 194.559839
L 231.703469 196.050998
L 232.659131 196.08492
L 233.650656 196.971682
L 234.626786 196.639839
L 235.630117 195.812434
L 236.616911 196.591168
L 237.591318 196.759321
L 241.538541 196.710012
L 242.531518 191.479999
L 243.528637 189.93734
L 244.503854 189.78095
L 246.475896 189.225831
L 247.451762 188.051466
L 248.442099 185.815065
L 249.424867 184.945991
L 250.422418 183.297365
L 251.413126 180.673291
L 253.379975 172.877743
L 254.363 167.792508
L 255.363438 169.012417
L 256.336673 175.893834
L 257.320496 186.522322
L 258.310213 183.639097
L 259.303173 189.484702
L 260.282572 189.838923
L 261.270443 190.825397
L 262.240461 194.429462
L 263.235267 194.897468
L 264.216766 196.056874
L 265.211193 196.552556
L 266.197012 197.32163
L 268.162007 197.189461
L 269.039234 196.890593
L 270.012765 197.321809
L 272.983964 197.359485
L 277.904665 197.303205
L 278.8936 197.17252
L 279.873466 197.285368
L 285.797428 197.12376
L 286.786398 196.100157
L 287.76416 196.50031
L 288.64493 187.526115
L 290.606462 173.514339
L 291.59069 172.271245
L 292.591197 167.709328
L 293.563904 166.305342
L 294.563465 169.208126
L 295.530246 170.591666
L 296.52184 175.071877
L 297.507763 177.453264
L 298.498667 197.191771
L 299.482715 197.243679
L 300.456053 190.002454
L 301.446009 196.98189
L 302.427766 197.35597
L 308.25016 197.296453
L 313.163557 197.202308
L 314.14175 196.988314
L 315.143814 197.147861
L 317.105701 196.973016
L 318.090139 197.247364
L 319.075313 197.084072
L 321.054428 197.235174
L 321.946143 197.136159
L 322.905514 197.36308
L 328.810742 197.377472
L 331.78151 197.367602
L 332.761991 196.901897
L 333.757705 196.894398
L 334.730486 195.928012
L 335.714818 195.201404
L 336.706052 195.82317
L 338.678157 196.36587
L 339.666088 196.926785
L 341.640642 196.976472
L 342.641677 194.353832
L 343.601727 191.469353
L 344.602132 190.666905
L 345.58611 177.922963
L 346.576933 171.960625
L 347.565119 170.605589
L 348.542493 152.959492
L 349.535685 149.482985
L 350.516041 133.306674
L 351.393251 112.238786
L 352.37638 83.229417
L 353.369457 91.985156
L 354.340857 78.283442
L 355.333918 75.957916
L 356.326871 82.496486
L 357.301814 80.420021
L 358.28727 58.400944
L 359.28114 63.8283
L 360.265452 81.601946
L 361.254571 71.116772
L 362.250712 51.652981
L 363.221797 55.873335
L 366.172031 59.122791
L 367.169797 74.469207
L 368.153684 91.79619
L 369.127728 112.19632
L 370.114443 116.64974
L 371.10909 116.791918
L 372.090953 163.226199
L 373.074134 170.740527
L 374.068867 173.495167
L 375.037374 196.569238
L 376.036749 196.765794
L 377.009771 196.719812
L 378.004665 196.33669
L 378.977745 196.355234
L 380.957032 196.518944
L 381.945938 196.456509
L 382.82508 195.668971
L 383.786744 193.668237
L 384.7947 194.998265
L 385.760637 194.853946
L 386.74492 195.398139
L 387.631998 187.583062
L 388.611309 182.92961
L 389.589087 180.249903
L 390.575511 172.367142
L 392.574358 150.711708
L 394.527122 110.478547
L 395.507938 111.367959
L 396.497153 122.395523
L 397.38074 128.252721
L 399.215503 103.466425
L 400.194863 96.861576
L 401.196783 61.405154
L 402.179788 75.81281
L 403.157968 62.489776
L 404.135215 85.218789
L 405.119381 88.094036
L 406.114249 109.508675
L 407.104994 137.786278
L 408.073938 147.036723
L 409.075815 152.066206
L 410.049493 155.616472
L 411.048232 155.954658
L 412.025466 168.942145
L 413.994844 176.673036
L 414.872896 177.536275
L 415.843709 180.437585
L 416.831611 178.611287
L 417.819074 178.726864
L 418.813831 178.271567
L 419.802468 175.683495
L 420.782771 169.654341
L 421.766795 168.622293
L 422.759204 176.403798
L 423.728031 178.607024
L 424.71753 184.131403
L 425.601429 186.147515
L 426.581064 184.478822
L 427.553353 184.733072
L 428.543894 184.279159
L 429.530643 188.706416
L 430.519315 189.132483
L 431.501559 192.01008
L 432.480018 193.687528
L 433.373135 193.952245
L 434.335935 196.609324
L 435.31208 197.249087
L 437.290003 197.18486
L 439.257711 196.757657
L 440.256213 197.347843
L 444.190635 197.251806
L 445.184069 197.171345
L 446.174095 196.811656
L 447.149219 197.342983
L 448.136734 188.091591
L 449.126013 189.614342
L 450.11411 189.143946
L 451.103344 187.806687
L 452.086542 186.732302
L 453.077041 183.892491
L 454.05987 181.464394
L 455.042896 178.322389
L 456.038278 175.755799
L 457.020393 174.056869
L 458.010225 171.581885
L 458.986442 168.155035
L 459.976249 165.248725
L 460.96312 192.610972
L 461.944484 192.715833
L 463.924723 192.30584
L 464.908356 192.559562
L 465.885653 196.413157
L 466.880805 196.975775
L 467.875891 195.614086
L 468.847457 196.044634
L 469.858848 196.293994
L 470.82708 197.308145
L 471.81324 197.278228
L 472.80561 197.360561
L 473.788097 196.868036
L 474.767583 197.233212
L 475.749527 197.246647
L 476.738584 186.819406
L 477.727893 183.572091
L 478.739644 182.27949
L 479.708683 177.762688
L 480.694214 170.482513
L 481.671836 161.925082
L 482.662142 152.057572
L 483.639502 150.020844
L 484.636648 163.217296
L 485.617469 169.587554
L 486.495395 170.746891
L 487.461152 172.643532
L 488.455791 176.407035
L 489.444685 176.052953
L 491.410256 164.124056
L 492.407125 145.610249
L 493.380223 152.680842
L 494.379402 152.65445
L 495.353199 136.605409
L 496.349447 128.457901
L 497.325994 110.720607
L 498.336608 95.550749
L 499.297845 87.94136
L 501.280369 48.072967
L 502.254179 16.256364
L 503.250043 28.117667
L 504.237742 54.997727
L 505.217532 38.744999
L 506.20946 63.959932
L 507.208997 132.23222
L 508.17208 160.820272
L 509.170998 171.056006
L 510.156026 172.647077
L 511.133759 166.848699
L 512.114058 183.092264
L 513.111434 190.763739
L 514.085846 193.874772
L 515.084079 194.399445
L 516.062219 193.025217
L 516.94188 189.243798
L 517.929819 171.863393
L 518.90802 168.856336
L 519.887124 159.010466
L 520.766903 162.530177
L 521.7449 159.454201
L 522.730577 151.479108
L 523.707517 160.586339
L 524.70834 148.785697
L 526.673243 120.817041
L 527.669411 109.546411
L 528.644475 102.005074
L 529.634082 106.477417
L 530.62639 136.970027
L 531.627219 141.333585
L 532.595569 149.170045
L 533.579457 131.384827
L 534.463561 112.730524
L 535.436725 114.712117
L 536.428418 111.686735
L 537.404194 131.991216
L 538.380141 148.498184
L 539.39542 153.261805
L 540.354623 150.608649
L 541.340061 142.321294
L 542.359742 126.340225
L 543.326466 113.943332
L 544.312596 117.374714
L 546.288524 149.214453
L 547.267335 154.694384
L 548.241819 153.915262
L 549.232881 144.434758
L 550.213164 138.15484
L 552.191868 153.344118
L 553.169516 144.957778
L 554.171595 143.570533
L 556.133198 116.116063
L 557.108643 124.507174
L 558.104879 127.933298
L 559.08372 129.278355
L 560.077536 121.233328
L 561.060501 118.205127
L 561.942092 119.594055
L 562.91909 126.50528
L 563.904131 125.495242
L 564.911039 118.371267
L 565.866014 108.86227
L 566.869018 107.809467
L 567.860311 110.227504
L 569.82207 127.328333
L 570.96453 129.050248
L 571.911637 129.100881
L 573.083001 127.862776
L 574.017482 127.463091
L 575.155297 127.581875
L 575.155297 127.581875
" clip-path="url(#p1c3d015f41)" style="fill: none; stroke: #3498db; stroke-width: 1.5; stroke-linecap: square"/>
   </g>
   <g id="patch_7">
    <path d="M 36.465625 206.44
L 36.465625 7.2
" style="fill: none; stroke: #ffffff; stroke-linejoin: miter; stroke-linecap: square"/>
   </g>
   <g id="patch_8">
    <path d="M 600.825625 206.44
L 600.825625 7.2
" style="fill: none; stroke: #3498db; stroke-linejoin: miter; stroke-linecap: square"/>
   </g>
   <g id="patch_9">
    <path d="M 36.465625 206.44
L 600.825624 206.44
" style="fill: none; stroke: #ffffff; stroke-linejoin: miter; stroke-linecap: square"/>
   </g>
   <g id="patch_10">
    <path d="M 36.465625 7.2
L 600.825624 7.2
" style="fill: none; stroke: #ffffff; stroke-linejoin: miter; stroke-linecap: square"/>
   </g>
   <g id="legend_1">
    <g id="patch_11">
     <path d="M 619.112825 122.998125
L 703.86595 122.998125
Q 705.86595 122.998125 705.86595 120.998125
L 705.86595 92.641875
Q 705.86595 90.641875 703.86595 90.641875
L 619.112825 90.641875
Q 617.112825 90.641875 617.112825 92.641875
L 617.112825 120.998125
Q 617.112825 122.998125 619.112825 122.998125
z
" style="fill: #1a1a2e; opacity: 0.9; stroke: #2a2a4a; stroke-linejoin: miter"/>
    </g>
    <g id="line2d_37">
     <path d="M 621.112825 98.740313
L 631.112825 98.740313
L 641.112825 98.740313
" style="fill: none; stroke: #4cdc29; stroke-width: 1.5; stroke-linecap: square"/>
    </g>
    <g id="text_22">
     <!-- plant-ness -->
     <g style="fill: #ffffff" transform="translate(649.112825 102.240313) scale(0.1 -0.1)">
      <defs>
       <path id="DejaVuSans-70" d="M 1159 525
L 1159 -1331
L 581 -1331
L 581 3500
L 1159 3500
L 1159 2969
Q 1341 3281 1617 3432
Q 1894 3584 2278 3584
Q 2916 3584 3314 3078
Q 3713 2572 3713 1747
Q 3713 922 3314 415
Q 2916 -91 2278 -91
Q 1894 -91 1617 61
Q 1341 213 1159 525
z
M 3116 1747
Q 3116 2381 2855 2742
Q 2594 3103 2138 3103
Q 1681 3103 1420 2742
Q 1159 2381 1159 1747
Q 1159 1113 1420 752
Q 1681 391 2138 391
Q 2594 391 2855 752
Q 3116 1113 3116 1747
z
" transform="scale(0.015625)"/>
       <path id="DejaVuSans-6c" d="M 603 4863
L 1178 4863
L 1178 0
L 603 0
L 603 4863
z
" transform="scale(0.015625)"/>
       <path id="DejaVuSans-61" d="M 2194 1759
Q 1497 1759 1228 1600
Q 959 1441 959 1056
Q 959 750 1161 570
Q 1363 391 1709 391
Q 2188 391 2477 730
Q 2766 1069 2766 1631
L 2766 1759
L 2194 1759
z
M 3341 1997
L 3341 0
L 2766 0
L 2766 531
Q 2569 213 2275 61
Q 1981 -91 1556 -91
Q 1019 -91 701 211
Q 384 513 384 1019
Q 384 1609 779 1909
Q 1175 2209 1959 2209
L 2766 2209
L 2766 2266
Q 2766 2663 2505 2880
Q 2244 3097 1772 3097
Q 1472 3097 1187 3025
Q 903 2953 641 2809
L 641 3341
Q 956 3463 1253 3523
Q 1550 3584 1831 3584
Q 2591 3584 2966 3190
Q 3341 2797 3341 1997
z
" transform="scale(0.015625)"/>
       <path id="DejaVuSans-6e" d="M 3513 2113
L 3513 0
L 2938 0
L 2938 2094
Q 2938 2591 2744 2837
Q 2550 3084 2163 3084
Q 1697 3084 1428 2787
Q 1159 2491 1159 1978
L 1159 0
L 581 0
L 581 3500
L 1159 3500
L 1159 2956
Q 1366 3272 1645 3428
Q 1925 3584 2291 3584
Q 2894 3584 3203 3211
Q 3513 2838 3513 2113
z
" transform="scale(0.015625)"/>
       <path id="DejaVuSans-2d" d="M 313 2009
L 1997 2009
L 1997 1497
L 313 1497
L 313 2009
z
" transform="scale(0.015625)"/>
      </defs>
      <use xlink:href="#DejaVuSans-70"/>
      <use xlink:href="#DejaVuSans-6c" transform="translate(63.476562 0)"/>
      <use xlink:href="#DejaVuSans-61" transform="translate(91.259766 0)"/>
      <use xlink:href="#DejaVuSans-6e" transform="translate(152.539062 0)"/>
      <use xlink:href="#DejaVuSans-74" transform="translate(215.917969 0)"/>
      <use xlink:href="#DejaVuSans-2d" transform="translate(255.126953 0)"/>
      <use xlink:href="#DejaVuSans-6e" transform="translate(291.210938 0)"/>
      <use xlink:href="#DejaVuSans-65" transform="translate(354.589844 0)"/>
      <use xlink:href="#DejaVuSans-73" transform="translate(416.113281 0)"/>
      <use xlink:href="#DejaVuSans-73" transform="translate(468.212891 0)"/>
     </g>
    </g>
    <g id="line2d_38">
     <path d="M 621.112825 113.418438
L 631.112825 113.418438
L 641.112825 113.418438
" style="fill: none; stroke: #3498db; stroke-width: 1.5; stroke-linecap: square"/>
    </g>
    <g id="text_23">
     <!-- brightness -->
     <g style="fill: #ffffff" transform="translate(649.112825 116.918438) scale(0.1 -0.1)">
      <defs>
       <path id="DejaVuSans-62" d="M 3116 1747
Q 3116 2381 2855 2742
Q 2594 3103 2138 3103
Q 1681 3103 1420 2742
Q 1159 2381 1159 1747
Q 1159 1113 1420 752
Q 1681 391 2138 391
Q 2594 391 2855 752
Q 3116 1113 3116 1747
z
M 1159 2969
Q 1341 3281 1617 3432
Q 1894 3584 2278 3584
Q 2916 3584 3314 3078
Q 3713 2572 3713 1747
Q 3713 922 3314 415
Q 2916 -91 2278 -91
Q 1894 -91 1617 61
Q 1341 213 1159 525
L 1159 0
L 581 0
L 581 4863
L 1159 4863
L 1159 2969
z
" transform="scale(0.015625)"/>
       <path id="DejaVuSans-72" d="M 2631 2963
Q 2534 3019 2420 3045
Q 2306 3072 2169 3072
Q 1681 3072 1420 2755
Q 1159 2438 1159 1844
L 1159 0
L 581 0
L 581 3500
L 1159 3500
L 1159 2956
Q 1341 3275 1631 3429
Q 1922 3584 2338 3584
Q 2397 3584 2469 3576
Q 2541 3569 2628 3553
L 2631 2963
z
" transform="scale(0.015625)"/>
       <path id="DejaVuSans-67" d="M 2906 1791
Q 2906 2416 2648 2759
Q 2391 3103 1925 3103
Q 1463 3103 1205 2759
Q 947 2416 947 1791
Q 947 1169 1205 825
Q 1463 481 1925 481
Q 2391 481 2648 825
Q 2906 1169 2906 1791
z
M 3481 434
Q 3481 -459 3084 -895
Q 2688 -1331 1869 -1331
Q 1566 -1331 1297 -1286
Q 1028 -1241 775 -1147
L 775 -588
Q 1028 -725 1275 -790
Q 1522 -856 1778 -856
Q 2344 -856 2625 -561
Q 2906 -266 2906 331
L 2906 616
Q 2728 306 2450 153
Q 2172 0 1784 0
Q 1141 0 747 490
Q 353 981 353 1791
Q 353 2603 747 3093
Q 1141 3584 1784 3584
Q 2172 3584 2450 3431
Q 2728 3278 2906 2969
L 2906 3500
L 3481 3500
L 3481 434
z
" transform="scale(0.015625)"/>
       <path id="DejaVuSans-68" d="M 3513 2113
L 3513 0
L 2938 0
L 2938 2094
Q 2938 2591 2744 2837
Q 2550 3084 2163 3084
Q 1697 3084 1428 2787
Q 1159 2491 1159 1978
L 1159 0
L 581 0
L 581 4863
L 1159 4863
L 1159 2956
Q 1366 3272 1645 3428
Q 1925 3584 2291 3584
Q 2894 3584 3203 3211
Q 3513 2838 3513 2113
z
" transform="scale(0.015625)"/>
      </defs>
      <use xlink:href="#DejaVuSans-62"/>
      <use xlink:href="#DejaVuSans-72" transform="translate(63.476562 0)"/>
      <use xlink:href="#DejaVuSans-69" transform="translate(104.589844 0)"/>
      <use xlink:href="#DejaVuSans-67" transform="translate(132.373047 0)"/>
      <use xlink:href="#DejaVuSans-68" transform="translate(195.849609 0)"/>
      <use xlink:href="#DejaVuSans-74" transform="translate(259.228516 0)"/>
      <use xlink:href="#DejaVuSans-6e" transform="translate(298.4375 0)"/>
      <use xlink:href="#DejaVuSans-65" transform="translate(361.816406 0)"/>
      <use xlink:href="#DejaVuSans-73" transform="translate(423.339844 0)"/>
      <use xlink:href="#DejaVuSans-73" transform="translate(475.439453 0)"/>
     </g>
    </g>
   </g>
  </g>
 </g>
 <defs>
  <clipPath id="p1c3d015f41">
   <rect x="36.465625" y="7.2" width="564.36" height="199.24"/>
  </clipPath>
 </defs>
</svg>
