<?xml version="1.0" encoding="utf-8" standalone="no"?>
<!DOCTYPE svg PUBLIC "-//W3C//DTD SVG 1.1//EN"
  "http://www.w3.org/Graphics/SVG/1.1/DTD/svg11.dtd">
<svg xmlns:xlink="http://www.w3.org/1999/xlink" width="713.324013pt" height="243.99625pt" viewBox="0 0 713.324013 243.99625" xmlns="http://www.w3.org/2000/svg" version="1.1">
 <metadata>
  <rdf:RDF xmlns:dc="http://purl.org/dc/elements/1.1/" xmlns:cc="http://creativecommons.org/ns#" xmlns:rdf="http://www.w3.org/1999/02/22-rdf-syntax-ns#">
   <cc:Work>
    <dc:type rdf:resource="http://purl.org/dc/dcmitype/StillImage"/>
    <dc:date>1980-01-01T00:00:00+00:00</dc:date>
    <dc:format>image/svg+xml</dc:format>
    <dc:creator>
     <cc:Agent>
      <dc:title>Matplotlib v3.10.8, https://matplotlib.org/</dc:title>
     </cc:Agent>
    </dc:creator>
   </cc:Work>
  </rdf:RDF>
 </metadata>
 <defs>
  <style type="text/css">*{stroke-linejoin: round; stroke-linecap: butt}</style>
 </defs>
 <g id="figure_1">
  <g id="patch_1">
   <path d="M 0 243.99625
L 713.324013 243.99625
L 713.324013 0
L 0 0
L 0 243.99625
z
" style="fill: none; opacity: 0"/>
  </g>
  <g id="axes_1">
   <g id="patch_2">
    <path d="M 30.103125 206.44
L 601.663125 206.44
L 601.663125 7.2
L 30.103125 7.2
z
" style="fill: #16213e"/>
   </g>
   <g id="matplotlib.axis_1">
    <g id="xtick_1">
     <g id="line2d_1">
      <path d="M 52.059211 206.44
L 52.059211 7.2
" clip-path="url(#p918c83b255)" style="fill: none; stroke: #2a2a4a; stroke-width: 0.5; stroke-linecap: square"/>
     </g>
     <g id="line2d_2">
      <defs>
       <path id="m3e804922d4" d="M 0 0
L 0 3.5
" style="stroke: #ffffff"/>
      </defs>
      <g>
       <use xlink:href="#m3e804922d4" x="52.059211" y="206.44" style="fill: #ffffff; stroke: #ffffff"/>
      </g>
     </g>
     <g id="text_1">
      <!-- -2s -->
      <g style="fill: #ffffff" transform="translate(44.469367 221.038438) scale(0.1 -0.1)">
       <defs>
        <path id="DejaVuSans-2d" d="M 313 2009
L 1997 2009
L 1997 1497
L 313 1497
L 313 2009
z
" transform="scale(0.015625)"/>
        <path id="DejaVuSans-32" d="M 1228 531
L 3431 531
L 3431 0
L 469 0
L 469 531
Q 828 903 1448 1529
Q 2069 2156 2228 2338
Q 2531 2678 2651 2914
Q 2772 3150 2772 3378
Q 2772 3750 2511 3984
Q 2250 4219 1831 4219
Q 1534 4219 1204 4116
Q 875 4013 500 3803
L 500 4441
Q 881 4594 1212 4672
Q 1544 4750 1819 4750
Q 2544 4750 2975 4387
Q 3406 4025 3406 3419
Q 3406 3131 3298 2873
Q 3191 2616 2906 2266
Q 2828 2175 2409 1742
Q 1991 1309 1228 531
z
" transform="scale(0.015625)"/>
        <path id="DejaVuSans-73" d="M 2834 3397
L 2834 2853
Q 2591 2978 2328 3040
Q 2066 3103 1784 3103
Q 1356 3103 1142 2972
Q 928 2841 928 2578
Q 928 2378 1081 2264
Q 1234 2150 1697 2047
L 1894 2003
Q 2506 1872 2764 1633
Q 3022 1394 3022 966
Q 3022 478 2636 193
Q 2250 -91 1575 -91
Q 1294 -91 989 -36
Q 684 19 347 128
L 347 722
Q 666 556 975 473
Q 1284 391 1588 391
Q 1994 391 2212 530
Q 2431 669 2431 922
Q 2431 1156 2273 1281
Q 2116 1406 1581 1522
L 1381 1569
Q 847 1681 609 1914
Q 372 2147 372 2553
Q 372 3047 722 3315
Q 1072 3584 1716 3584
Q 2034 3584 2315 3537
Q 2597 3491 2834 3397
z
" transform="scale(0.015625)"/>
       </defs>
       <use xlink:href="#DejaVuSans-2d"/>
       <use xlink:href="#DejaVuSans-32" transform="translate(36.083984 0)"/>
       <use xlink:href="#DejaVuSans-73" transform="translate(99.707031 0)"/>
      </g>
     </g>
    </g>
    <g id="xtick_2">
     <g id="line2d_3">
      <path d="M 142.149861 206.44
L 142.149861 7.2
" clip-path="url(#p918c83b255)" style="fill: none; stroke: #2a2a4a; stroke-width: 0.5; stroke-linecap: square"/>
     </g>
     <g id="line2d_4">
      <g>
       <use xlink:href="#m3e804922d4" x="142.149861" y="206.44" style="fill: #ffffff; stroke: #ffffff"/>
      </g>
     </g>
     <g id="text_2">
      <!-- 48s -->
      <g style="fill: #ffffff" transform="translate(133.182673 221.038438) scale(0.1 -0.1)">
       <defs>
        <path id="DejaVuSans-34" d="M 2419 4116
L 825 1625
L 2419 1625
L 2419 4116
z
M 2253 4666
L 3047 4666
L 3047 1625
L 3713 1625
L 3713 1100
L 3047 1100
L 3047 0
L 2419 0
L 2419 1100
L 313 1100
L 313 1709
L 2253 4666
z
" transform="scale(0.015625)"/>
        <path id="DejaVuSans-38" d="M 2034 2216
Q 1584 2216 1326 1975
Q 1069 1734 1069 1313
Q 1069 891 1326 650
Q 1584 409 2034 409
Q 2484 409 2743 651
Q 3003 894 3003 1313
Q 3003 1734 2745 1975
Q 2488 2216 2034 2216
z
M 1403 2484
Q 997 2584 770 2862
Q 544 3141 544 3541
Q 544 4100 942 4425
Q 1341 4750 2034 4750
Q 2731 4750 3128 4425
Q 3525 4100 3525 3541
Q 3525 3141 3298 2862
Q 3072 2584 2669 2484
Q 3125 2378 3379 2068
Q 3634 1759 3634 1313
Q 3634 634 3220 271
Q 2806 -91 2034 -91
Q 1263 -91 848 271
Q 434 634 434 1313
Q 434 1759 690 2068
Q 947 2378 1403 2484
z
M 1172 3481
Q 1172 3119 1398 2916
Q 1625 2713 2034 2713
Q 2441 2713 2670 2916
Q 2900 3119 2900 3481
Q 2900 3844 2670 4047
Q 2441 4250 2034 4250
Q 1625 4250 1398 4047
Q 1172 3844 1172 3481
z
" transform="scale(0.015625)"/>
       </defs>
       <use xlink:href="#DejaVuSans-34"/>
       <use xlink:href="#DejaVuSans-38" transform="translate(63.623047 0)"/>
       <use xlink:href="#DejaVuSans-73" transform="translate(127.246094 0)"/>
      </g>
     </g>
    </g>
    <g id="xtick_3">
     <g id="line2d_5">
      <path d="M 232.240511 206.44
L 232.240511 7.2
" clip-path="url(#p918c83b255)" style="fill: none; stroke: #2a2a4a; stroke-width: 0.5; stroke-linecap: square"/>
     </g>
     <g id="line2d_6">
      <g>
       <use xlink:href="#m3e804922d4" x="232.240511" y="206.44" style="fill: #ffffff; stroke: #ffffff"/>
      </g>
     </g>
     <g id="text_3">
      <!-- 98s -->
      <g style="fill: #ffffff" transform="translate(223.273323 221.038438) scale(0.1 -0.1)">
       <defs>
        <path id="DejaVuSans-39" d="M 703 97
L 703 672
Q 941 559 1184 500
Q 1428 441 1663 441
Q 2288 441 2617 861
Q 2947 1281 2994 2138
Q 2813 1869 2534 1725
Q 2256 1581 1919 1581
Q 1219 1581 811 2004
Q 403 2428 403 3163
Q 403 3881 828 4315
Q 1253 4750 1959 4750
Q 2769 4750 3195 4129
Q 3622 3509 3622 2328
Q 3622 1225 3098 567
Q 2575 -91 1691 -91
Q 1453 -91 1209 -44
Q 966 3 703 97
z
M 1959 2075
Q 2384 2075 2632 2365
Q 2881 2656 2881 3163
Q 2881 3666 2632 3958
Q 2384 4250 1959 4250
Q 1534 4250 1286 3958
Q 1038 3666 1038 3163
Q 1038 2656 1286 2365
Q 1534 2075 1959 2075
z
" transform="scale(0.015625)"/>
       </defs>
       <use xlink:href="#DejaVuSans-39"/>
       <use xlink:href="#DejaVuSans-38" transform="translate(63.623047 0)"/>
       <use xlink:href="#DejaVuSans-73" transform="translate(127.246094 0)"/>
      </g>
     </g>
    </g>
    <g id="xtick_4">
     <g id="line2d_7">
      <path d="M 322.331161 206.44
L 322.331161 7.2
" clip-path="url(#p918c83b255)" style="fill: none; stroke: #2a2a4a; stroke-width: 0.5; stroke-linecap: square"/>
     </g>
     <g id="line2d_8">
      <g>
       <use xlink:href="#m3e804922d4" x="322.331161" y="206.44" style="fill: #ffffff; stroke: #ffffff"/>
      </g>
     </g>
     <g id="text_4">
      <!-- 148s -->
      <g style="fill: #ffffff" transform="translate(310.182724 221.038438) scale(0.1 -0.1)">
       <defs>
        <path id="DejaVuSans-31" d="M 794 531
L 1825 531
L 1825 4091
L 703 3866
L 703 4441
L 1819 4666
L 2450 4666
L 2450 531
L 3481 531
L 3481 0
L 794 0
L 794 531
z
" transform="scale(0.015625)"/>
       </defs>
       <use xlink:href="#DejaVuSans-31"/>
       <use xlink:href="#DejaVuSans-34" transform="translate(63.623047 0)"/>
       <use xlink:href="#DejaVuSans-38" transform="translate(127.246094 0)"/>
       <use xlink:href="#DejaVuSans-73" transform="translate(190.869141 0)"/>
      </g>
     </g>
    </g>
    <g id="xtick_5">
     <g id="line2d_9">
      <path d="M 412.421811 206.44
L 412.421811 7.2
" clip-path="url(#p918c83b255)" style="fill: none; stroke: #2a2a4a; stroke-width: 0.5; stroke-linecap: square"/>
     </g>
     <g id="line2d_10">
      <g>
       <use xlink:href="#m3e804922d4" x="412.421811" y="206.44" style="fill: #ffffff; stroke: #ffffff"/>
      </g>
     </g>
     <g id="text_5">
      <!-- 198s -->
      <g style="fill: #ffffff" transform="translate(400.273374 221.038438) scale(0.1 -0.1)">
       <use xlink:href="#DejaVuSans-31"/>
       <use xlink:href="#DejaVuSans-39" transform="translate(63.623047 0)"/>
       <use xlink:href="#DejaVuSans-38" transform="translate(127.246094 0)"/>
       <use xlink:href="#DejaVuSans-73" transform="translate(190.869141 0)"/>
      </g>
     </g>
    </g>
    <g id="xtick_6">
     <g id="line2d_11">
      <path d="M 502.512461 206.44
L 502.512461 7.2
" clip-path="url(#p918c83b255)" style="fill: none; stroke: #2a2a4a; stroke-width: 0.5; stroke-linecap: square"/>
     </g>
     <g id="line2d_12">
      <g>
       <use xlink:href="#m3e804922d4" x="502.512461" y="206.44" style="fill: #ffffff; stroke: #ffffff"/>
      </g>
     </g>
     <g id="text_6">
      <!-- 248s -->
      <g style="fill: #ffffff" transform="translate(490.364024 221.038438) scale(0.1 -0.1)">
       <use xlink:href="#DejaVuSans-32"/>
       <use xlink:href="#DejaVuSans-34" transform="translate(63.623047 0)"/>
       <use xlink:href="#DejaVuSans-38" transform="translate(127.246094 0)"/>
       <use xlink:href="#DejaVuSans-73" transform="translate(190.869141 0)"/>
      </g>
     </g>
    </g>
    <g id="xtick_7">
     <g id="line2d_13">
      <path d="M 592.603112 206.44
L 592.603112 7.2
" clip-path="url(#p918c83b255)" style="fill: none; stroke: #2a2a4a; stroke-width: 0.5; stroke-linecap: square"/>
     </g>
     <g id="line2d_14">
      <g>
       <use xlink:href="#m3e804922d4" x="592.603112" y="206.44" style="fill: #ffffff; stroke: #ffffff"/>
      </g>
     </g>
     <g id="text_7">
      <!-- 298s -->
      <g style="fill: #ffffff" transform="translate(580.454674 221.038438) scale(0.1 -0.1)">
       <use xlink:href="#DejaVuSans-32"/>
       <use xlink:href="#DejaVuSans-39" transform="translate(63.623047 0)"/>
       <use xlink:href="#DejaVuSans-38" transform="translate(127.246094 0)"/>
       <use xlink:href="#DejaVuSans-73" transform="translate(190.869141 0)"/>
      </g>
     </g>
    </g>
    <g id="text_8">
     <!-- time (s) -->
     <g style="fill: #ffffff" transform="translate(296.491719 234.716563) scale(0.1 -0.1)">
      <defs>
       <path id="DejaVuSans-74" d="M 1172 4494
L 1172 3500
L 2356 3500
L 2356 3053
L 1172 3053
L 1172 1153
Q 1172 725 1289 603
Q 1406 481 1766 481
L 2356 481
L 2356 0
L 1766 0
Q 1100 0 847 248
Q 594 497 594 1153
L 594 3053
L 172 3053
L 172 3500
L 594 3500
L 594 4494
L 1172 4494
z
" transform="scale(0.015625)"/>
       <path id="DejaVuSans-69" d="M 603 3500
L 1178 3500
L 1178 0
L 603 0
L 603 3500
z
M 603 4863
L 1178 4863
L 1178 4134
L 603 4134
L 603 4863
z
" transform="scale(0.015625)"/>
       <path id="DejaVuSans-6d" d="M 3328 2828
Q 3544 3216 3844 3400
Q 4144 3584 4550 3584
Q 5097 3584 5394 3201
Q 5691 2819 5691 2113
L 5691 0
L 5113 0
L 5113 2094
Q 5113 2597 4934 2840
Q 4756 3084 4391 3084
Q 3944 3084 3684 2787
Q 3425 2491 3425 1978
L 3425 0
L 2847 0
L 2847 2094
Q 2847 2600 2669 2842
Q 2491 3084 2119 3084
Q 1678 3084 1418 2786
Q 1159 2488 1159 1978
L 1159 0
L 581 0
L 581 3500
L 1159 3500
L 1159 2956
Q 1356 3278 1631 3431
Q 1906 3584 2284 3584
Q 2666 3584 2933 3390
Q 3200 3197 3328 2828
z
" transform="scale(0.015625)"/>
       <path id="DejaVuSans-65" d="M 3597 1894
L 3597 1613
L 953 1613
Q 991 1019 1311 708
Q 1631 397 2203 397
Q 2534 397 2845 478
Q 3156 559 3463 722
L 3463 178
Q 3153 47 2828 -22
Q 2503 -91 2169 -91
Q 1331 -91 842 396
Q 353 884 353 1716
Q 353 2575 817 3079
Q 1281 3584 2069 3584
Q 2775 3584 3186 3129
Q 3597 2675 3597 1894
z
M 3022 2063
Q 3016 2534 2758 2815
Q 2500 3097 2075 3097
Q 1594 3097 1305 2825
Q 1016 2553 972 2059
L 3022 2063
z
" transform="scale(0.015625)"/>
       <path id="DejaVuSans-20" transform="scale(0.015625)"/>
       <path id="DejaVuSans-28" d="M 1984 4856
Q 1566 4138 1362 3434
Q 1159 2731 1159 2009
Q 1159 1288 1364 580
Q 1569 -128 1984 -844
L 1484 -844
Q 1016 -109 783 600
Q 550 1309 550 2009
Q 550 2706 781 3412
Q 1013 4119 1484 4856
L 1984 4856
z
" transform="scale(0.015625)"/>
       <path id="DejaVuSans-29" d="M 513 4856
L 1013 4856
Q 1481 4119 1714 3412
Q 1947 2706 1947 2009
Q 1947 1309 1714 600
Q 1481 -109 1013 -844
L 513 -844
Q 928 -128 1133 580
Q 1338 1288 1338 2009
Q 1338 2731 1133 3434
Q 928 4138 513 4856
z
" transform="scale(0.015625)"/>
      </defs>
      <use xlink:href="#DejaVuSans-74"/>
      <use xlink:href="#DejaVuSans-69" transform="translate(39.208984 0)"/>
      <use xlink:href="#DejaVuSans-6d" transform="translate(66.992188 0)"/>
      <use xlink:href="#DejaVuSans-65" transform="translate(164.404297 0)"/>
      <use xlink:href="#DejaVuSans-20" transform="translate(225.927734 0)"/>
      <use xlink:href="#DejaVuSans-28" transform="translate(257.714844 0)"/>
      <use xlink:href="#DejaVuSans-73" transform="translate(296.728516 0)"/>
      <use xlink:href="#DejaVuSans-29" transform="translate(348.828125 0)"/>
     </g>
    </g>
   </g>
   <g id="matplotlib.axis_2">
    <g id="ytick_1">
     <g id="line2d_15">
      <path d="M 30.103125 197.383636
L 601.663125 197.383636
" clip-path="url(#p918c83b255)" style="fill: none; stroke: #2a2a4a; stroke-width: 0.5; stroke-linecap: square"/>
     </g>
     <g id="line2d_16">
      <defs>
       <path id="me0e09884e2" d="M 0 0
L -3.5 0
" style="stroke: #ffffff"/>
      </defs>
      <g>
       <use xlink:href="#me0e09884e2" x="30.103125" y="197.383636" style="fill: #ffffff; stroke: #ffffff"/>
      </g>
     </g>
     <g id="text_9">
      <!-- 0.0 -->
      <g style="fill: #ffffff" transform="translate(7.2 201.182855) scale(0.1 -0.1)">
       <defs>
        <path id="DejaVuSans-30" d="M 2034 4250
Q 1547 4250 1301 3770
Q 1056 3291 1056 2328
Q 1056 1369 1301 889
Q 1547 409 2034 409
Q 2525 409 2770 889
Q 3016 1369 3016 2328
Q 3016 3291 2770 3770
Q 2525 4250 2034 4250
z
M 2034 4750
Q 2819 4750 3233 4129
Q 3647 3509 3647 2328
Q 3647 1150 3233 529
Q 2819 -91 2034 -91
Q 1250 -91 836 529
Q 422 1150 422 2328
Q 422 3509 836 4129
Q 1250 4750 2034 4750
z
" transform="scale(0.015625)"/>
        <path id="DejaVuSans-2e" d="M 684 794
L 1344 794
L 1344 0
L 684 0
L 684 794
z
" transform="scale(0.015625)"/>
       </defs>
       <use xlink:href="#DejaVuSans-30"/>
       <use xlink:href="#DejaVuSans-2e" transform="translate(63.623047 0)"/>
       <use xlink:href="#DejaVuSans-30" transform="translate(95.410156 0)"/>
      </g>
     </g>
    </g>
    <g id="ytick_2">
     <g id="line2d_17">
      <path d="M 30.103125 161.158182
L 601.663125 161.158182
" clip-path="url(#p918c83b255)" style="fill: none; stroke: #2a2a4a; stroke-width: 0.5; stroke-linecap: square"/>
     </g>
     <g id="line2d_18">
      <g>
       <use xlink:href="#me0e09884e2" x="30.103125" y="161.158182" style="fill: #ffffff; stroke: #ffffff"/>
      </g>
     </g>
     <g id="text_10">
      <!-- 0.2 -->
      <g style="fill: #ffffff" transform="translate(7.2 164.957401) scale(0.1 -0.1)">
       <use xlink:href="#DejaVuSans-30"/>
       <use xlink:href="#DejaVuSans-2e" transform="translate(63.623047 0)"/>
       <use xlink:href="#DejaVuSans-32" transform="translate(95.410156 0)"/>
      </g>
     </g>
    </g>
    <g id="ytick_3">
     <g id="line2d_19">
      <path d="M 30.103125 124.932727
L 601.663125 124.932727
" clip-path="url(#p918c83b255)" style="fill: none; stroke: #2a2a4a; stroke-width: 0.5; stroke-linecap: square"/>
     </g>
     <g id="line2d_20">
      <g>
       <use xlink:href="#me0e09884e2" x="30.103125" y="124.932727" style="fill: #ffffff; stroke: #ffffff"/>
      </g>
     </g>
     <g id="text_11">
      <!-- 0.4 -->
      <g style="fill: #ffffff" transform="translate(7.2 128.731946) scale(0.1 -0.1)">
       <use xlink:href="#DejaVuSans-30"/>
       <use xlink:href="#DejaVuSans-2e" transform="translate(63.623047 0)"/>
       <use xlink:href="#DejaVuSans-34" transform="translate(95.410156 0)"/>
      </g>
     </g>
    </g>
    <g id="ytick_4">
     <g id="line2d_21">
      <path d="M 30.103125 88.707273
L 601.663125 88.707273
" clip-path="url(#p918c83b255)" style="fill: none; stroke: #2a2a4a; stroke-width: 0.5; stroke-linecap: square"/>
     </g>
     <g id="line2d_22">
      <g>
       <use xlink:href="#me0e09884e2" x="30.103125" y="88.707273" style="fill: #ffffff; stroke: #ffffff"/>
      </g>
     </g>
     <g id="text_12">
      <!-- 0.6 -->
      <g style="fill: #ffffff" transform="translate(7.2 92.506491) scale(0.1 -0.1)">
       <defs>
        <path id="DejaVuSans-36" d="M 2113 2584
Q 1688 2584 1439 2293
Q 1191 2003 1191 1497
Q 1191 994 1439 701
Q 1688 409 2113 409
Q 2538 409 2786 701
Q 3034 994 3034 1497
Q 3034 2003 2786 2293
Q 2538 2584 2113 2584
z
M 3366 4563
L 3366 3988
Q 3128 4100 2886 4159
Q 2644 4219 2406 4219
Q 1781 4219 1451 3797
Q 1122 3375 1075 2522
Q 1259 2794 1537 2939
Q 1816 3084 2150 3084
Q 2853 3084 3261 2657
Q 3669 2231 3669 1497
Q 3669 778 3244 343
Q 2819 -91 2113 -91
Q 1303 -91 875 529
Q 447 1150 447 2328
Q 447 3434 972 4092
Q 1497 4750 2381 4750
Q 2619 4750 2861 4703
Q 3103 4656 3366 4563
z
" transform="scale(0.015625)"/>
       </defs>
       <use xlink:href="#DejaVuSans-30"/>
       <use xlink:href="#DejaVuSans-2e" transform="translate(63.623047 0)"/>
       <use xlink:href="#DejaVuSans-36" transform="translate(95.410156 0)"/>
      </g>
     </g>
    </g>
    <g id="ytick_5">
     <g id="line2d_23">
      <path d="M 30.103125 52.481818
L 601.663125 52.481818
" clip-path="url(#p918c83b255)" style="fill: none; stroke: #2a2a4a; stroke-width: 0.5; stroke-linecap: square"/>
     </g>
     <g id="line2d_24">
      <g>
       <use xlink:href="#me0e09884e2" x="30.103125" y="52.481818" style="fill: #ffffff; stroke: #ffffff"/>
      </g>
     </g>
     <g id="text_13">
      <!-- 0.8 -->
      <g style="fill: #ffffff" transform="translate(7.2 56.281037) scale(0.1 -0.1)">
       <use xlink:href="#DejaVuSans-30"/>
       <use xlink:href="#DejaVuSans-2e" transform="translate(63.623047 0)"/>
       <use xlink:href="#DejaVuSans-38" transform="translate(95.410156 0)"/>
      </g>
     </g>
    </g>
    <g id="ytick_6">
     <g id="line2d_25">
      <path d="M 30.103125 16.256364
L 601.663125 16.256364
" clip-path="url(#p918c83b255)" style="fill: none; stroke: #2a2a4a; stroke-width: 0.5; stroke-linecap: square"/>
     </g>
     <g id="line2d_26">
      <g>
       <use xlink:href="#me0e09884e2" x="30.103125" y="16.256364" style="fill: #ffffff; stroke: #ffffff"/>
      </g>
     </g>
     <g id="text_14">
      <!-- 1.0 -->
      <g style="fill: #ffffff" transform="translate(7.2 20.055582) scale(0.1 -0.1)">
       <use xlink:href="#DejaVuSans-31"/>
       <use xlink:href="#DejaVuSans-2e" transform="translate(63.623047 0)"/>
       <use xlink:href="#DejaVuSans-30" transform="translate(95.410156 0)"/>
      </g>
     </g>
    </g>
   </g>
   <g id="line2d_27">
    <path d="M 56.083125 92.030664
L 56.587917 112.478709
L 57.731776 101.296861
L 59.127049 99.380895
L 59.882203 97.964344
L 61.02182 96.552385
L 61.912152 99.096131
L 62.541308 102.741905
L 63.930829 100.271116
L 65.596407 94.788066
L 66.469234 89.517062
L 67.354224 95.616148
L 68.623158 93.340036
L 70.268988 92.056225
L 71.279569 90.851741
L 72.290116 87.90142
L 73.829784 105.547292
L 74.443429 108.878169
L 75.84442 129.512647
L 76.458386 132.641099
L 79.375628 154.593486
L 80.386769 162.302537
L 80.650826 160.165242
L 81.529418 150.559905
L 82.793874 150.904975
L 83.944934 151.499707
L 84.568827 149.488613
L 86.857168 130.292365
L 87.361441 118.882855
L 88.493787 122.332988
L 89.134059 120.107371
L 90.412573 123.814668
L 91.041112 133.206799
L 96.972292 146.324867
L 97.605545 115.904758
L 100.651511 100.116069
L 101.286957 109.732137
L 102.551004 96.199843
L 103.441201 80.184543
L 104.583363 72.460209
L 104.96467 67.304369
L 106.094087 74.527433
L 106.737918 77.641364
L 107.772261 72.91701
L 114.444931 94.91907
L 115.091933 77.382646
L 116.357377 59.140775
L 117.639011 98.782649
L 118.635236 124.94074
L 119.662914 116.557509
L 119.912213 121.108899
L 121.04002 97.197138
L 122.695343 71.521218
L 122.82386 40.442555
L 124.713751 43.5416
L 124.837734 51.826439
L 125.977523 60.764557
L 126.86026 48.369436
L 127.883635 32.141164
L 129.515539 16.675204
L 141.541657 160.277868
L 142.056861 180.380422
L 143.573442 183.16544
L 144.204635 166.499316
L 145.463567 153.786189
L 145.71798 144.772734
L 146.98284 135.86875
L 148.634997 131.128439
L 149.538813 127.978071
L 149.785568 124.153284
L 151.557757 117.807764
L 152.826501 124.237943
L 154.476391 126.13728
L 155.607788 126.817793
L 156.746959 129.039003
L 157.374998 122.528745
L 158.773464 126.878026
L 159.765367 130.700028
L 160.779561 120.232151
L 161.280673 120.586725
L 161.912052 99.053454
L 162.922704 103.93823
L 164.313585 92.578318
L 165.185802 80.647789
L 166.834096 96.800281
L 166.954776 92.149473
L 166.954776 197.383636
L 180.887508 197.383636
L 180.887508 196.734105
L 183.428895 160.26483
L 184.435478 176.438829
L 185.704328 159.071562
L 186.591729 152.034352
L 187.856929 150.997792
L 189.625449 173.224426
L 191.402468 177.40947
L 192.298216 163.436988
L 192.795346 157.898382
L 193.553542 138.334691
L 195.320059 134.340769
L 195.707764 133.108341
L 197.212546 124.899946
L 197.853664 117.199073
L 199.229168 105.330124
L 199.879696 110.31947
L 201.002844 110.683506
L 201.510107 124.185667
L 203.411817 154.800682
L 203.790831 156.051871
L 204.548269 152.524803
L 206.446968 163.045152
L 207.351395 147.372332
L 208.351122 134.732964
L 208.731119 126.531424
L 210.001085 121.725602
L 211.394413 109.802125
L 211.907455 114.694975
L 212.911689 99.723827
L 213.806182 116.07001
L 214.813792 114.811723
L 215.822813 113.788921
L 216.706104 116.697093
L 216.706104 197.383636
L 246.195418 197.383636
L 246.195418 168.322338
L 247.222918 187.580618
L 247.222918 197.383636
L 286.204034 197.383636
L 286.204034 189.792763
L 286.581137 161.910902
L 287.483293 157.594695
L 287.483293 197.383636
L 342.425725 197.383636
L 342.425725 158.07918
L 343.317476 158.688151
L 344.218874 161.36852
L 345.210128 163.264053
L 346.224823 142.282613
L 347.371055 136.513498
L 347.87997 135.79395
L 349.380445 125.436948
L 349.516745 112.447727
L 352.436962 132.089979
L 352.562687 137.591309
L 354.070413 146.934595
L 354.698102 147.020389
L 356.221437 160.73161
L 357.358258 173.668963
L 358.38642 161.537697
L 358.75491 177.385311
L 360.022202 164.241561
L 360.912405 152.535359
L 362.437898 136.425438
L 362.683034 138.988283
L 364.064497 117.432484
L 365.58635 108.275399
L 365.964306 116.456701
L 366.720381 101.598234
L 366.720381 197.383636
L 386.729064 197.383636
L 386.729064 170.117288
L 388.14535 151.810945
L 388.759368 145.531915
L 390.27623 149.850084
L 390.789509 139.510198
L 391.792524 128.667041
L 392.423797 128.46281
L 393.692444 132.930748
L 394.839135 134.22376
L 395.470337 130.591636
L 396.864948 129.020676
L 398.010605 142.418089
L 398.761561 162.527274
L 399.522304 167.955147
L 401.418532 185.200483
L 401.543947 189.217204
L 402.55407 182.908618
L 404.32653 189.602437
L 404.712655 197.383636
L 406.234704 190.490519
L 406.993227 184.924404
L 407.615918 163.676034
L 417.369984 109.503668
L 417.369984 197.383636
L 456.860548 197.383636
L 456.860548 145.477102
L 457.247464 71.036523
L 457.247464 197.383636
L 479.652888 197.383636
L 479.652888 95.555798
L 480.03322 114.157584
L 481.056156 105.767273
L 482.826699 88.841664
L 482.951414 95.769694
L 484.22035 72.892033
L 489.1586 16.256364
L 490.678564 21.197522
L 491.432522 47.283369
L 492.70419 64.95182
L 493.833477 88.377681
L 494.093342 103.469264
L 495.730487 108.956039
L 496.24014 103.151899
L 498.015529 96.170983
L 498.649534 111.015347
L 499.911688 111.076468
L 500.295995 107.90596
L 501.565697 94.353038
L 503.2096 69.802063
L 504.214226 80.294351
L 505.355534 79.826529
L 506.244419 83.593349
L 507.511428 90.885311
L 509.660673 108.964773
L 518.27098 166.495426
L 519.160618 136.347587
L 520.677951 132.385913
L 521.685688 116.668957
L 522.319687 112.970848
L 523.201466 113.898659
L 524.733962 123.705376
L 524.858309 133.250847
L 526.002989 129.363956
L 527.006644 126.699228
L 528.784121 125.808963
L 529.79907 134.62203
L 530.051748 135.20644
L 531.22157 140.780163
L 532.706955 142.294772
L 533.277678 142.583986
L 534.09693 125.719057
L 535.661366 128.0448
L 536.372948 131.754185
L 537.02109 132.082437
L 538.407722 130.667799
L 539.033796 120.929145
L 540.690304 116.11973
L 541.712911 119.589872
L 542.723767 121.914204
L 543.477978 133.01493
L 545.887699 140.815756
L 547.022726 145.820027
L 548.023569 140.20572
L 549.041439 133.854844
L 550.812732 131.926474
L 551.32299 128.003931
L 553.218221 111.457799
L 554.984708 88.723848
L 556.258148 58.971103
L 557.130238 50.365792
L 558.153422 52.040228
L 559.929984 36.971613
L 560.179438 33.653161
L 561.702294 38.425549
L 562.973969 37.566378
L 563.722911 50.770035
L 564.987811 68.03758
L 566.009759 77.715973
L 566.771838 98.77967
L 567.396772 106.156805
L 568.172735 107.318817
L 569.238761 139.056928
L 571.06994 142.20337
L 571.952306 142.78022
L 572.709475 139.622487
L 573.962836 139.600324
L 575.374488 145.666962
L 575.683125 145.823433
L 575.683125 145.823433
" clip-path="url(#p918c83b255)" style="fill: none; stroke: #4cdc29; stroke-width: 1.5; stroke-linecap: square"/>
   </g>
   <g id="patch_3">
    <path d="M 30.103125 206.44
L 30.103125 7.2
" style="fill: none; stroke: #ffffff; stroke-linejoin: miter; stroke-linecap: square"/>
   </g>
   <g id="patch_4">
    <path d="M 601.663125 206.44
L 601.663125 7.2
" style="fill: none; stroke: #ffffff; stroke-linejoin: miter; stroke-linecap: square"/>
   </g>
   <g id="patch_5">
    <path d="M 30.103125 206.44
L 601.663125 206.44
" style="fill: none; stroke: #ffffff; stroke-linejoin: miter; stroke-linecap: square"/>
   </g>
   <g id="patch_6">
    <path d="M 30.103125 7.2
L 601.663125 7.2
" style="fill: none; stroke: #ffffff; stroke-linejoin: miter; stroke-linecap: square"/>
   </g>
   <g id="legend_1">
    <g id="patch_7">
     <path d="M 620.094325 115.659063
L 704.124013 115.659063
Q 706.124013 115.659063 706.124013 113.659063
L 706.124013 99.980938
Q 706.124013 97.980938 704.124013 97.980938
L 620.094325 97.980938
Q 618.094325 97.980938 618.094325 99.980938
L 618.094325 113.659063
Q 618.094325 115.659063 620.094325 115.659063
z
" style="fill: #1a1a2e; opacity: 0.9; stroke: #2a2a4a; stroke-linejoin: miter"/>
    </g>
    <g id="line2d_28">
     <path d="M 622.094325 106.079375
L 632.094325 106.079375
L 642.094325 106.079375
" style="fill: none; stroke: #4cdc29; stroke-width: 1.5; stroke-linecap: square"/>
    </g>
    <g id="text_15">
     <!-- plant-ness -->
     <g style="fill: #ffffff" transform="translate(650.094325 109.579375) scale(0.1 -0.1)">
      <defs>
       <path id="DejaVuSans-70" d="M 1159 525
L 1159 -1331
L 581 -1331
L 581 3500
L 1159 3500
L 1159 2969
Q 1341 3281 1617 3432
Q 1894 3584 2278 3584
Q 2916 3584 3314 3078
Q 3713 2572 3713 1747
Q 3713 922 3314 415
Q 2916 -91 2278 -91
Q 1894 -91 1617 61
Q 1341 213 1159 525
z
M 3116 1747
Q 3116 2381 2855 2742
Q 2594 3103 2138 3103
Q 1681 3103 1420 2742
Q 1159 2381 1159 1747
Q 1159 1113 1420 752
Q 1681 391 2138 391
Q 2594 391 2855 752
Q 3116 1113 3116 1747
z
" transform="scale(0.015625)"/>
       <path id="DejaVuSans-6c" d="M 603 4863
L 1178 4863
L 1178 0
L 603 0
L 603 4863
z
" transform="scale(0.015625)"/>
       <path id="DejaVuSans-61" d="M 2194 1759
Q 1497 1759 1228 1600
Q 959 1441 959 1056
Q 959 750 1161 570
Q 1363 391 1709 391
Q 2188 391 2477 730
Q 2766 1069 2766 1631
L 2766 1759
L 2194 1759
z
M 3341 1997
L 3341 0
L 2766 0
L 2766 531
Q 2569 213 2275 61
Q 1981 -91 1556 -91
Q 1019 -91 701 211
Q 384 513 384 1019
Q 384 1609 779 1909
Q 1175 2209 1959 2209
L 2766 2209
L 2766 2266
Q 2766 2663 2505 2880
Q 2244 3097 1772 3097
Q 1472 3097 1187 3025
Q 903 2953 641 2809
L 641 3341
Q 956 3463 1253 3523
Q 1550 3584 1831 3584
Q 2591 3584 2966 3190
Q 3341 2797 3341 1997
z
" transform="scale(0.015625)"/>
       <path id="DejaVuSans-6e" d="M 3513 2113
L 3513 0
L 2938 0
L 2938 2094
Q 2938 2591 2744 2837
Q 2550 3084 2163 3084
Q 1697 3084 1428 2787
Q 1159 2491 1159 1978
L 1159 0
L 581 0
L 581 3500
L 1159 3500
L 1159 2956
Q 1366 3272 1645 3428
Q 1925 3584 2291 3584
Q 2894 3584 3203 3211
Q 3513 2838 3513 2113
z
" transform="scale(0.015625)"/>
      </defs>
      <use xlink:href="#DejaVuSans-70"/>
      <use xlink:href="#DejaVuSans-6c" transform="translate(63.476562 0)"/>
      <use xlink:href="#DejaVuSans-61" transform="translate(91.259766 0)"/>
      <use xlink:href="#DejaVuSans-6e" transform="translate(152.539062 0)"/>
      <use xlink:href="#DejaVuSans-74" transform="translate(215.917969 0)"/>
      <use xlink:href="#DejaVuSans-2d" transform="translate(255.126953 0)"/>
      <use xlink:href="#DejaVuSans-6e" transform="translate(291.210938 0)"/>
      <use xlink:href="#DejaVuSans-65" transform="translate(354.589844 0)"/>
      <use xlink:href="#DejaVuSans-73" transform="translate(416.113281 0)"/>
      <use xlink:href="#DejaVuSans-73" transform="translate(468.212891 0)"/>
     </g>
    </g>
   </g>
  </g>
 </g>
 <defs>
  <clipPath id="p918c83b255">
   <rect x="30.103125" y="7.2" width="571.56" height="199.24"/>
  </clipPath>
 </defs>
</svg>
